<?xml version="1.0" encoding="UTF-8" standalone="no"?>
<!-- Created with Keyshape -->
<svg xmlns="http://www.w3.org/2000/svg" viewBox="0 0 102 55" xmlns:xlink="http://www.w3.org/1999/xlink" fill-rule="evenodd" clip-rule="evenodd" stroke-linecap="round" stroke-linejoin="round" stroke-miterlimit="1.5" style="background: rgba(255,213,135,0.00);">
    <defs>
        <linearGradient id="Gradient-0" x1="53.3736" y1="18.5591" x2="53.3736" y2="44.44" gradientUnits="userSpaceOnUse">
            <stop offset="0" stop-color="#ffffff"/>
            <stop offset="0.36" stop-color="#ffffff"/>
            <stop offset="1" stop-color="#ffbcaa"/>
        </linearGradient>
        <linearGradient id="Gradient-1" x1="11.2359" y1="35" x2="101.736" y2="40.875" gradientUnits="userSpaceOnUse">
            <stop offset="0" stop-color="#ffffff"/>
            <stop offset="0.835" stop-color="#ffffff"/>
            <stop offset="1" stop-color="#000000"/>
        </linearGradient>
        <mask id="Mask-1">
            <path id="Mask" d="M4.59414,43.6929C4.59414,43.6929,4.97904,43.0593,5.62378,42.0569C6.22131,41.1278,7.04202,39.882,7.98634,38.5302C10.9856,34.2351,15.2426,28.4967,17.5359,28.825C21.5734,29.4013,20.8496,27.2001,22.0864,26.5216C23.3241,25.8428,36.0297,17.4241,41.3025,17.425C48.4152,17.4247,49.9889,19.1213,52.2359,19.5474C54.4819,19.974,57.4696,24.4029,61.5359,24.35C67.192,24.2763,68.2251,24.6751,72.2481,25.1936C76.2706,25.7135,77.3584,30.7176,80.9692,30.6C84.8339,30.2431,92.2826,31.56,92.9825,31.56C95.4807,31.56,94.8219,38.4415,95.1692,38.64C96.2892,39.28,99.3292,38.68,101.236,40.125C101.781,40.4366,102.685,42.0602,101.864,42.0158C99.0531,41.8623,74.402,44.4399,62.4862,44.4398C50.5704,44.4397,39.17,41.8722,32.406,41.873C17.349,41.8723,4.59414,43.6929,4.59414,43.6929Z" fill="url(#Gradient-1)" stroke="none" fill-opacity="1" fill-rule="evenodd" clip-rule="evenodd" stroke-linecap="round" stroke-linejoin="round" stroke-miterlimit="1.5" transform="translate(-4.59403,-28.077)"/>
        </mask>
    </defs>
    <g id="Back-group" transform="translate(51.8446,31.2465) scale(0.75,1) translate(-48.7679,-13.1934)">
        <path id="Back" d="M4.59414,43.6929C4.59414,43.6929,4.97904,43.0593,5.62378,42.0569C6.22131,41.1278,7.04202,39.882,7.98634,38.5302C10.9856,34.2351,15.2289,28.8717,17.5222,29.2C21.5597,29.7763,19.979,35.3816,21.2158,34.7031C22.4535,34.0243,36.1833,18.0522,41.4561,18.0531C48.5688,18.0528,46.6213,33.1142,48.8683,33.5403C51.1143,33.9669,57.4196,25.2465,61.4859,25.1936C67.142,25.1199,64.8246,34.184,68.8476,34.7025C72.8701,35.2224,77.2795,31.3745,80.8903,31.2569C84.755,30.9,85.0551,37.25,85.755,37.25C88.2532,37.25,88.9301,35,92.521,34.7028C96.255,34.7028,93.8486,38.7,95.6801,38.7C101.864,38.7,102.685,42.0602,101.864,42.0158C99.0531,41.8623,74.402,44.4399,62.4862,44.4398C50.5704,44.4397,39.17,41.8722,32.406,41.873C17.349,41.8723,4.59414,43.6929,4.59414,43.6929Z" fill="url(#Gradient-0)" stroke="none" fill-opacity="0.5" transform="translate(-4.59414,-18.0531)"/>
    </g>
    <g id="Middle-and-Front-mask-group" mask="url(#Mask-1)" transform="translate(54.0978,36.3863) scale(0.75,1) translate(-51.7722,-8.30929)">
        <g id="Mid-group" transform="translate(54.8691,6.06385) scale(1,0.8) translate(-48.7679,-13.1934)">
            <path id="Middle" d="M4.59414,43.6929C4.59414,43.6929,4.97904,43.0593,5.62378,42.0569C6.22131,41.1278,7.04202,39.882,7.98634,38.5302C10.9856,34.2351,15.2289,28.8717,17.5222,29.2C21.5597,29.7763,19.979,35.3816,21.2158,34.7031C22.4535,34.0243,36.1833,18.0522,41.4561,18.0531C48.5688,18.0528,46.6213,33.1142,48.8683,33.5403C51.1143,33.9669,57.4196,25.2465,61.4859,25.1936C67.142,25.1199,64.8246,34.184,68.8476,34.7025C72.8701,35.2224,77.2795,31.3745,80.8903,31.2569C84.755,30.9,85.0551,37.25,85.755,37.25C88.2532,37.25,88.9301,35,92.521,34.7028C96.255,34.7028,93.8486,38.7,95.6801,38.7C101.864,38.7,102.685,42.0602,101.864,42.0158C99.0531,41.8623,74.402,44.4399,62.4862,44.4398C50.5704,44.4397,39.17,41.8722,32.406,41.873C17.349,41.8723,4.59414,43.6929,4.59414,43.6929Z" fill="#ffffff" stroke="none" fill-opacity="0.2" transform="translate(-4.59414,-18.0531)"/>
        </g>
        <g id="Front-group" transform="translate(48.768,13.2575) scale(1,0.4) translate(-48.7679,-13.1934)">
            <path id="Front" d="M4.59414,43.6929C4.59414,43.6929,4.97904,43.0593,5.62378,42.0569C6.22131,41.1278,7.04202,39.882,7.98634,38.5302C10.9856,34.2351,15.2289,28.8717,17.5222,29.2C21.5597,29.7763,19.979,35.3816,21.2158,34.7031C22.4535,34.0243,36.1833,18.0522,41.4561,18.0531C48.5688,18.0528,46.6213,33.1142,48.8683,33.5403C51.1143,33.9669,57.4196,25.2465,61.4859,25.1936C67.142,25.1199,64.8246,34.184,68.8476,34.7025C72.8701,35.2224,77.2795,31.3745,80.8903,31.2569C84.755,30.9,85.0551,37.25,85.755,37.25C88.2532,37.25,88.9301,35,92.521,34.7028C96.255,34.7028,93.8486,38.7,95.6801,38.7C101.864,38.7,102.685,42.0602,101.864,42.0158C99.0531,41.8623,74.402,44.4399,62.4862,44.4398C50.5704,44.4397,39.17,41.8722,32.406,41.873C17.349,41.8723,4.59414,43.6929,4.59414,43.6929Z" fill="#ffbcaa" stroke="none" fill-opacity="0.4" transform="translate(48.7305,10.9189) translate(-53.3246,-32.4592)"/>
        </g>
    </g>
</svg>
