<?xml version="1.0" encoding="UTF-8" standalone="no"?>
<!-- Created with Keyshape -->
<svg xmlns="http://www.w3.org/2000/svg" xmlns:xlink="http://www.w3.org/1999/xlink" viewBox="0 0 134 134" fill-rule="evenodd" clip-rule="evenodd" stroke-linecap="round" stroke-linejoin="round" stroke-miterlimit="1.5" style="background: rgba(255,213,135,0.00);">
    <defs>
        <radialGradient id="Gradient-0" cx="0" cy="0" r="15.212" fx="0" fy="0" gradientUnits="userSpaceOnUse">
            <stop offset="0" stop-color="#ffd587"/>
            <stop offset="0.725" stop-color="#ffd587"/>
            <stop offset="1" stop-color="#ffd587" stop-opacity="0"/>
        </radialGradient>
        <radialGradient id="Gradient-1" cx="-34.8553" cy="-34.0395" r="1" fx="-34.8553" fy="-34.0395" gradientUnits="userSpaceOnUse" gradientTransform="matrix(15.2123 0 0 15.2123 530.23 517.819)">
            <stop offset="0" stop-color="#ffffff" stop-opacity="0.5"/>
            <stop offset="0.55" stop-color="#ffffff" stop-opacity="0.15"/>
            <stop offset="1" stop-color="#ffffff" stop-opacity="0"/>
        </radialGradient>
        <radialGradient id="Gradient-2" cx="-34.8553" cy="-34.0395" r="1" fx="-34.8553" fy="-34.0395" gradientUnits="userSpaceOnUse" gradientTransform="matrix(15.2123 0 0 15.2123 530.23 517.819)">
            <stop offset="0" stop-color="#ff144f"/>
            <stop offset="1" stop-color="#cb4868" stop-opacity="0"/>
        </radialGradient>
        <clipPath id="ClipPath-1">
            <path id="Mouth-Fill-3" d="M545.73,497.074L553.248,495.978C553.915,495.881,554.534,496.342,554.631,497.009C554.728,497.676,554.267,498.295,553.6,498.392L546.082,499.488L538.565,500.585C537.898,500.683,537.279,500.221,537.182,499.554C537.084,498.887,537.546,498.268,538.213,498.171Z" fill="#1b1a65" fill-rule="evenodd" stroke="none" fill-opacity="1" opacity="0" clip-rule="evenodd" stroke-linecap="round" stroke-linejoin="round" stroke-miterlimit="1.5" transform="translate(66.4042,97.1084) scale(1.8624,1.82405) translate(-545.638,-497.637)"/>
        </clipPath>
        <clipPath id="ClipPath-2">
            <path id="Mouth-Fill-2" d="M545.73,497.074L553.248,495.978C553.915,495.881,554.534,496.342,554.631,497.009C554.728,497.676,554.267,498.295,553.6,498.392L546.082,499.488L538.565,500.585C537.898,500.683,537.279,500.221,537.182,499.554C537.084,498.887,537.546,498.268,538.213,498.171Z" fill="#1b1a65" fill-rule="evenodd" stroke="none" fill-opacity="1" opacity="0" clip-rule="evenodd" stroke-linecap="round" stroke-linejoin="round" stroke-miterlimit="1.5" transform="translate(20.5863,15.7098) scale(1.8624,1.82405) translate(-545.638,-497.637)"/>
        </clipPath>
    </defs>
    <path id="Ref" d="M67.6508,0.502458L68.0806,0.506844L68.5105,0.515617L68.9403,0.524389L69.3701,0.537547L69.7956,0.550705L70.221,0.568249L70.6509,0.59018L71.0763,0.61211L71.5018,0.638426L71.9272,0.664743L72.3483,0.695445L72.7737,0.730534L73.1948,0.765622L73.6159,0.805097L74.0369,0.844571L74.458,0.892818L74.8747,0.936678L75.2957,0.984925L75.7124,1.03756L76.1291,1.09458L76.5457,1.1516L76.958,1.20861L77.3747,1.27002L77.787,1.33581L78.1993,1.4016L78.6116,1.47178L79.0239,1.54634L79.4318,1.6209L79.8441,1.69547L80.252,1.77442L80.6599,1.85775L81.0634,1.94109L81.4713,2.02881L81.8748,2.12091L82.2783,2.21302L82.6818,2.30513L83.0854,2.40162L83.4845,2.5025L83.8836,2.60338L84.2828,2.70865L84.6819,2.81391L85.081,2.92356L85.4758,3.03322L85.8705,3.14725L86.2653,3.26568L86.66,3.3841L87.0504,3.50252L87.4407,3.62533L87.8311,3.75253L88.2214,3.87972L88.6074,4.01131L88.9934,4.14289L89.3794,4.27886L89.7653,4.41482L90.1513,4.55518L90.5329,4.69553L90.9145,4.84027L91.2961,4.98501L91.6733,5.13414L92.0505,5.28326L92.4277,5.43678L92.8049,5.59029L93.1777,5.74819L93.5549,5.90608L93.9233,6.06837L94.2961,6.23504L94.6646,6.40171L95.0374,6.56838L95.4014,6.73944L95.7698,6.91049L96.1339,7.08593L96.4979,7.26138L96.862,7.44121L97.2216,7.62103L97.5813,7.80525L97.9409,7.98946L98.3006,8.17806L98.6559,8.36666L99.0111,8.55965L99.3664,8.75264L99.7173,8.95001L100.068,9.14738L100.419,9.34914L100.766,9.5509L101.116,9.75266L101.459,9.9588L101.805,10.1693L102.147,10.3755L102.489,10.5904L102.831,10.8053L103.169,11.0202L103.507,11.2395L103.845,11.4588L104.178,11.6781L104.511,11.9018L104.845,12.1299L105.174,12.358L105.503,12.5861L105.831,12.8185L106.16,13.051L106.485,13.2878L106.805,13.5247L107.13,13.7659L107.45,14.0071L107.77,14.2484L108.086,14.494L108.402,14.7396L108.717,14.9896L109.029,15.2396L109.34,15.4896L109.652,15.744L109.959,16.0028L110.266,16.2616L110.568,16.5203L110.871,16.7791L111.174,17.0423L111.476,17.3098L111.775,17.5774L112.073,17.8449L112.367,18.1125L112.661,18.3844L112.954,18.6607L113.244,18.9327L113.533,19.2134L113.818,19.4897L114.104,19.7704L114.389,20.0555L114.669,20.3362L114.95,20.6213L115.231,20.9108L115.507,21.2003L115.783,21.4898L116.055,21.7836L116.327,22.0775L116.599,22.3714L116.867,22.6696L117.134,22.9679L117.398,23.2661L117.661,23.5687L117.924,23.8714L118.183,24.1784L118.441,24.4854L118.696,24.7925L118.95,25.1039L119.205,25.4153L119.455,25.7267L119.7,26.0425L119.95,26.3583L120.196,26.6741L120.437,26.9943L120.678,27.3144L120.915,27.6346L121.156,27.9592L121.389,28.2838L121.626,28.6083L121.854,28.9373L122.086,29.2662L122.314,29.5996L122.538,29.9285L122.762,30.2619L122.985,30.5996L123.205,30.9329L123.424,31.2707L123.639,31.6128L123.854,31.9505L124.064,32.2926L124.275,32.6391L124.481,32.9812L124.687,33.3277L124.893,33.6742L125.095,34.0251L125.297,34.3716L125.494,34.7269L125.687,35.0778L125.885,35.433L126.073,35.7883L126.262,36.1436L126.45,36.4989L126.635,36.8585L126.819,37.2182L127.003,37.5822L127.178,37.9419L127.358,38.3059L127.529,38.6743L127.705,39.0384L127.876,39.4068L128.042,39.7752L128.209,40.1481L128.371,40.5165L128.534,40.8893L128.692,41.2621L128.85,41.6393L129.007,42.0121L129.157,42.3893L129.31,42.7709L129.459,43.1481L129.604,43.5297L129.749,43.9113L129.889,44.2929L130.029,44.6745L130.165,45.0604L130.301,45.4464L130.433,45.8324L130.564,46.2227L130.692,46.6087L130.814,46.9991L130.937,47.3938L131.06,47.7842L131.179,48.1789L131.293,48.5693L131.407,48.9684L131.521,49.3632L131.626,49.7579L131.736,50.157L131.836,50.5562L131.942,50.9553L132.038,51.3588L132.135,51.7623L132.231,52.1615L132.323,52.565L132.411,52.9729L132.499,53.3764L132.582,53.7843L132.665,54.1922L132.744,54.6001L132.823,55.008L132.898,55.4203L132.968,55.8282L133.038,56.2405L133.108,56.6528L133.17,57.0695L133.231,57.4818L133.293,57.8984L133.35,58.3151L133.402,58.7318L133.455,59.1485L133.503,59.5651L133.551,59.9862L133.595,60.4073L133.639,60.8283L133.674,61.2494L133.714,61.6705L133.744,62.0915L133.775,62.517L133.806,62.9424L133.832,63.3679L133.854,63.7933L133.876,64.2188L133.893,64.6442L133.907,65.074L133.92,65.5039L133.929,65.9337L133.933,66.3635L133.937,66.7934L133.942,67.2232L133.937,67.653L133.933,68.0873L133.929,68.5171L133.92,68.9469L133.907,69.3724L133.893,69.8022L133.876,70.2277L133.854,70.6531L133.832,71.0829L133.806,71.5084L133.775,71.9294L133.744,72.3549L133.714,72.776L133.674,73.2014L133.639,73.6225L133.595,74.0435L133.551,74.4602L133.503,74.8813L133.455,75.2979L133.402,75.719L133.35,76.1357L133.293,76.548L133.231,76.9646L133.17,77.3813L133.108,77.7936L133.038,78.2059L132.968,78.6182L132.898,79.0305L132.823,79.4384L132.744,79.8463L132.665,80.2542L132.582,80.6621L132.499,81.07L132.411,81.4779L132.323,81.8814L132.231,82.2849L132.135,82.6885L132.038,83.0876L131.942,83.4911L131.836,83.8902L131.736,84.2894L131.626,84.6885L131.521,85.0832L131.407,85.4824L131.293,85.8771L131.179,86.2719L131.06,86.6622L130.937,87.057L130.814,87.4473L130.692,87.8377L130.564,88.228L130.433,88.614L130.301,89L130.165,89.386L130.029,89.7719L129.889,90.1535L129.749,90.5395L129.604,90.9211L129.459,91.2983L129.31,91.6799L129.157,92.0571L129.007,92.4343L128.85,92.8115L128.692,93.1843L128.534,93.5571L128.371,93.9299L128.209,94.3027L128.042,94.6712L127.876,95.0396L127.705,95.408L127.529,95.7765L127.358,96.1405L127.178,96.5045L127.003,96.8686L126.819,97.2282L126.635,97.5879L126.45,97.9476L126.262,98.3028L126.073,98.6625L125.885,99.0178L125.687,99.3686L125.494,99.7239L125.297,100.075L125.095,100.426L124.893,100.772L124.687,101.119L124.481,101.465L124.275,101.812L124.064,102.154L123.854,102.496L123.639,102.838L123.424,103.176L123.205,103.513L122.985,103.851L122.762,104.185L122.538,104.518L122.314,104.851L122.086,105.18L121.854,105.509L121.626,105.838L121.389,106.163L121.156,106.487L120.915,106.812L120.678,107.132L120.437,107.457L120.196,107.772L119.95,108.093L119.7,108.408L119.455,108.72L119.205,109.036L118.95,109.347L118.696,109.654L118.441,109.965L118.183,110.268L117.924,110.575L117.661,110.878L117.398,111.18L117.134,111.479L116.867,111.781L116.599,112.075L116.327,112.373L116.055,112.667L115.783,112.957L115.507,113.251L115.231,113.536L114.95,113.825L114.669,114.11L114.389,114.395L114.104,114.676L113.818,114.957L113.533,115.237L113.244,115.514L112.954,115.79L112.661,116.062L112.367,116.334L112.073,116.606L111.775,116.873L111.476,117.141L111.174,117.404L110.871,117.667L110.568,117.93L110.266,118.189L109.959,118.448L109.652,118.702L109.34,118.957L109.029,119.207L108.717,119.457L108.402,119.707L108.086,119.952L107.77,120.198L107.45,120.444L107.13,120.685L106.805,120.922L106.485,121.159L106.16,121.395L105.831,121.628L105.503,121.86L105.174,122.088L104.845,122.317L104.511,122.545L104.178,122.768L103.845,122.992L103.507,123.211L103.169,123.426L102.831,123.645L102.489,123.86L102.147,124.071L101.805,124.281L101.459,124.488L101.116,124.694L100.766,124.9L100.419,125.102L100.068,125.299L99.7173,125.496L99.3664,125.694L99.0111,125.887L98.6559,126.08L98.3006,126.268L97.9409,126.457L97.5813,126.641L97.2216,126.825L96.862,127.005L96.4979,127.185L96.1339,127.36L95.7698,127.536L95.4014,127.711L95.0374,127.878L94.6646,128.049L94.2961,128.216L93.9233,128.378L93.5549,128.54L93.1777,128.698L92.8049,128.856L92.4277,129.01L92.0505,129.163L91.6733,129.317L91.2961,129.461L90.9145,129.611L90.5329,129.751L90.1513,129.896L89.7653,130.032L89.3794,130.172L88.9934,130.304L88.6074,130.439L88.2214,130.567L87.8311,130.694L87.4407,130.821L87.0504,130.944L86.66,131.067L86.2653,131.185L85.8705,131.299L85.4758,131.413L85.081,131.523L84.6819,131.632L84.2828,131.738L83.8836,131.843L83.4845,131.944L83.0854,132.045L82.6818,132.141L82.2783,132.238L81.8748,132.33L81.4713,132.418L81.0634,132.505L80.6599,132.589L80.252,132.672L79.8441,132.751L79.4318,132.83L79.0239,132.904L78.6116,132.975L78.1993,133.045L77.787,133.111L77.3747,133.176L76.958,133.238L76.5457,133.299L76.1291,133.356L75.7124,133.409L75.2957,133.461L74.8747,133.51L74.458,133.558L74.0369,133.602L73.6159,133.641L73.1948,133.681L72.7737,133.716L72.3483,133.751L71.9272,133.782L71.5018,133.812L71.0763,133.834L70.6509,133.861L70.221,133.878L69.7956,133.896L69.3701,133.913L68.9403,133.922L68.5105,133.935L68.0806,133.94L67.6508,133.944L66.7868,133.944L66.3569,133.94L65.9271,133.935L65.4973,133.922L65.0674,133.913L64.642,133.896L64.2121,133.878L63.7867,133.861L63.3612,133.834L62.9358,133.812L62.5104,133.782L62.0893,133.751L61.6638,133.716L61.2428,133.681L60.8217,133.641L60.4007,133.602L59.9796,133.558L59.5629,133.51L59.1419,133.461L58.7252,133.409L58.3085,133.356L57.8918,133.299L57.4795,133.238L57.0629,133.176L56.6506,133.111L56.2383,133.045L55.826,132.975L55.4137,132.904L55.0058,132.83L54.5935,132.751L54.1856,132.672L53.7777,132.589L53.3742,132.505L52.9663,132.418L52.5628,132.33L52.1592,132.238L51.7557,132.141L51.3522,132.045L50.9531,131.944L50.554,131.843L50.1548,131.738L49.7557,131.632L49.3566,131.523L48.9618,131.413L48.5671,131.299L48.1723,131.185L47.7776,131.067L47.3872,130.944L46.9969,130.821L46.6065,130.694L46.2161,130.567L45.8302,130.439L45.4398,130.304L45.0538,130.172L44.6722,130.032L44.2863,129.896L43.9047,129.751L43.5231,129.611L43.1415,129.461L42.7643,129.317L42.3871,129.163L42.0099,129.01L41.6327,128.856L41.2555,128.698L40.8827,128.54L40.5099,128.378L40.1414,128.216L39.7686,128.049L39.4002,127.878L39.0362,127.711L38.6677,127.536L38.3037,127.36L37.9396,127.185L37.5756,127.005L37.2159,126.825L36.8519,126.641L36.4966,126.457L36.137,126.268L35.7817,126.08L35.4264,125.887L35.0712,125.694L34.7203,125.496L34.3694,125.299L34.0185,125.102L33.6676,124.9L33.3211,124.694L32.9746,124.488L32.6325,124.281L32.2904,124.071L31.9483,123.86L31.6062,123.645L31.2684,123.426L30.9307,123.211L30.593,122.992L30.2597,122.768L29.9263,122.545L29.593,122.317L29.2596,122.088L28.9307,121.86L28.6061,121.628L28.2772,121.395L27.9526,121.159L27.628,120.922L27.3078,120.685L26.9877,120.444L26.6675,120.198L26.3517,119.952L26.0359,119.707L25.7201,119.457L25.4087,119.207L25.0973,118.957L24.7858,118.702L24.4788,118.448L24.1718,118.189L23.8692,117.93L23.5621,117.667L23.2639,117.404L22.9612,117.141L22.663,116.873L22.3647,116.606L22.0709,116.334L21.777,116.062L21.4831,115.79L21.1937,115.514L20.9042,115.237L20.6191,114.957L20.334,114.676L20.0489,114.395L19.7638,114.11L19.4875,113.825L19.2068,113.536L18.9305,113.251L18.6541,112.957L18.3822,112.667L18.1103,112.373L17.8383,112.075L17.5708,111.781L17.3032,111.479L17.0401,111.18L16.7769,110.878L16.5137,110.575L16.255,110.268L15.9962,109.965L15.7418,109.654L15.4874,109.347L15.233,109.036L14.983,108.72L14.733,108.408L14.4874,108.093L14.2418,107.772L14.0005,107.457L13.7593,107.132L13.5181,106.812L13.2812,106.487L13.0488,106.163L12.8119,105.838L12.5794,105.509L12.3514,105.18L12.1233,104.851L11.8996,104.518L11.6759,104.185L11.4522,103.851L11.2329,103.513L11.0136,103.176L10.7987,102.838L10.5838,102.496L10.3733,102.154L10.1627,101.812L9.95219,101.465L9.74605,101.119L9.54429,100.772L9.34253,100.426L9.14077,100.075L8.9434,99.7239L8.74603,99.3686L8.55304,99.0178L8.36444,98.6625L8.17145,98.3028L7.98724,97.9476L7.79864,97.5879L7.61881,97.2282L7.4346,96.8686L7.25915,96.5045L7.07933,96.1405L6.90388,95.7765L6.73283,95.408L6.56177,95.0396L6.3951,94.6712L6.22843,94.3027L6.06615,93.9299L5.90386,93.5571L5.74158,93.1843L5.58806,92.8115L5.43017,92.4343L5.27665,92.0571L5.12753,91.6799L4.9784,91.2983L4.83366,90.9211L4.68892,90.5395L4.54857,90.1535L4.40821,89.7719L4.27225,89.386L4.13628,89L4.0047,88.614L3.87312,88.228L3.74592,87.8377L3.62311,87.4473L3.5003,87.057L3.37749,86.6622L3.25907,86.2719L3.14503,85.8771L3.03099,85.4824L2.91695,85.0832L2.8073,84.6885L2.70204,84.2894L2.59677,83.8902L2.49589,83.4911L2.3994,83.0876L2.29852,82.6885L2.20641,82.2849L2.11431,81.8814L2.02658,81.4779L1.93886,81.07L1.85114,80.6621L1.77219,80.2542L1.69324,79.8463L1.61429,79.4384L1.53973,79.0305L1.46517,78.6182L1.39938,78.2059L1.3292,77.7936L1.2678,77.3813L1.202,76.9646L1.14499,76.548L1.08797,76.1357L1.03095,75.719L0.982702,75.2979L0.930069,74.8813L0.886208,74.4602L0.842348,74.0435L0.798487,73.6225L0.759013,73.2014L0.723924,72.776L0.693222,72.3549L0.658133,71.9294L0.631817,71.5084L0.605501,71.0829L0.58357,70.6531L0.56164,70.2277L0.544096,69.8022L0.530938,69.3724L0.517779,68.9469L0.509007,68.5171L0.500235,68.0873L0.495849,67.653L0.495849,66.7934L0.500235,66.3635L0.509007,65.9337L0.517779,65.5039L0.530938,65.074L0.544096,64.6442L0.56164,64.2188L0.58357,63.7933L0.605501,63.3679L0.631817,62.9424L0.658133,62.517L0.693222,62.0915L0.723924,61.6705L0.759013,61.2494L0.798487,60.8283L0.842348,60.4073L0.886208,59.9862L0.930069,59.5651L0.982702,59.1485L1.03095,58.7318L1.08797,58.3151L1.14499,57.8984L1.202,57.4818L1.2678,57.0695L1.3292,56.6528L1.39938,56.2405L1.46517,55.8282L1.53973,55.4203L1.61429,55.008L1.69324,54.6001L1.77219,54.1922L1.85114,53.7843L1.93886,53.3764L2.02658,52.9729L2.11431,52.565L2.20641,52.1615L2.29852,51.7623L2.3994,51.3588L2.49589,50.9553L2.59677,50.5562L2.70204,50.157L2.8073,49.7579L2.91695,49.3632L3.03099,48.9684L3.14503,48.5693L3.25907,48.1789L3.37749,47.7842L3.5003,47.3938L3.62311,46.9991L3.74592,46.6087L3.87312,46.2227L4.0047,45.8324L4.13628,45.4464L4.27225,45.0604L4.40821,44.6745L4.54857,44.2929L4.68892,43.9113L4.83366,43.5297L4.9784,43.1481L5.12753,42.7709L5.27665,42.3893L5.43017,42.0121L5.58806,41.6393L5.74158,41.2621L5.90386,40.8893L6.06615,40.5165L6.22843,40.1481L6.3951,39.7752L6.56177,39.4068L6.73283,39.0384L6.90388,38.6743L7.07933,38.3059L7.25915,37.9419L7.4346,37.5822L7.61881,37.2182L7.79864,36.8585L7.98724,36.4989L8.17145,36.1436L8.36444,35.7883L8.55304,35.433L8.74603,35.0778L8.9434,34.7269L9.14077,34.3716L9.34253,34.0251L9.54429,33.6742L9.74605,33.3277L9.95219,32.9812L10.1627,32.6391L10.3733,32.2926L10.5838,31.9505L10.7987,31.6128L11.0136,31.2707L11.2329,30.9329L11.4522,30.5996L11.6759,30.2619L11.8996,29.9285L12.1233,29.5996L12.3514,29.2662L12.5794,28.9373L12.8119,28.6083L13.0488,28.2838L13.2812,27.9592L13.5181,27.6346L13.7593,27.3144L14.0005,26.9943L14.2418,26.6741L14.4874,26.3583L14.733,26.0425L14.983,25.7267L15.233,25.4153L15.4874,25.1039L15.7418,24.7925L15.9962,24.4854L16.255,24.1784L16.5137,23.8714L16.7769,23.5687L17.0401,23.2661L17.3032,22.9679L17.5708,22.6696L17.8383,22.3714L18.1103,22.0775L18.3822,21.7836L18.6541,21.4898L18.9305,21.2003L19.2068,20.9108L19.4875,20.6213L19.7638,20.3362L20.0489,20.0555L20.334,19.7704L20.6191,19.4897L20.9042,19.2134L21.1937,18.9327L21.4831,18.6607L21.777,18.3844L22.0709,18.1125L22.3647,17.8449L22.663,17.5774L22.9612,17.3098L23.2639,17.0423L23.5621,16.7791L23.8692,16.5203L24.1718,16.2616L24.4788,16.0028L24.7858,15.744L25.0973,15.4896L25.4087,15.2396L25.7201,14.9896L26.0359,14.7396L26.3517,14.494L26.6675,14.2484L26.9877,14.0071L27.3078,13.7659L27.628,13.5247L27.9526,13.2878L28.2772,13.051L28.6061,12.8185L28.9307,12.5861L29.2596,12.358L29.593,12.1299L29.9263,11.9018L30.2597,11.6781L30.593,11.4588L30.9307,11.2395L31.2684,11.0202L31.6062,10.8053L31.9483,10.5904L32.2904,10.3755L32.6325,10.1693L32.9746,9.9588L33.3211,9.75266L33.6676,9.5509L34.0185,9.34914L34.3694,9.14738L34.7203,8.95001L35.0712,8.75264L35.4264,8.55965L35.7817,8.36666L36.137,8.17806L36.4966,7.98946L36.8519,7.80525L37.2159,7.62103L37.5756,7.44121L37.9396,7.26138L38.3037,7.08593L38.6677,6.91049L39.0362,6.73944L39.4002,6.56838L39.7686,6.40171L40.1414,6.23504L40.5099,6.06837L40.8827,5.90608L41.2555,5.74819L41.6327,5.59029L42.0099,5.43678L42.3871,5.28326L42.7643,5.13414L43.1415,4.98501L43.5231,4.84027L43.9047,4.69553L44.2863,4.55518L44.6722,4.41482L45.0538,4.27886L45.4398,4.14289L45.8302,4.01131L46.2161,3.87972L46.6065,3.75253L46.9969,3.62533L47.3872,3.50252L47.7776,3.3841L48.1723,3.26568L48.5671,3.14725L48.9618,3.03322L49.3566,2.92356L49.7557,2.81391L50.1548,2.70865L50.554,2.60338L50.9531,2.5025L51.3522,2.40162L51.7557,2.30513L52.1592,2.21302L52.5628,2.12091L52.9663,2.02881L53.3742,1.94109L53.7777,1.85775L54.1856,1.77442L54.5935,1.69547L55.0058,1.6209L55.4137,1.54634L55.826,1.47178L56.2383,1.4016L56.6506,1.33581L57.0629,1.27002L57.4795,1.20861L57.8918,1.1516L58.3085,1.09458L58.7252,1.03756L59.1419,0.984925L59.5629,0.936678L59.9796,0.892818L60.4007,0.844571L60.8217,0.805097L61.2428,0.765622L61.6638,0.730534L62.0893,0.695445L62.5104,0.664743L62.9358,0.638426L63.3612,0.61211L63.7867,0.59018L64.2121,0.568249L64.642,0.550705L65.0674,0.537547L65.4973,0.524389L65.9271,0.515617L66.3569,0.506844L66.7868,0.502458L67.6508,0.502458ZM66.7955,1.50248L66.3701,1.50687L65.9446,1.51564L65.5236,1.52441L65.1025,1.53757L64.6771,1.55073L64.256,1.56827L63.8393,1.58582L63.4183,1.61213L63.0016,1.63406L62.5805,1.66476L62.1639,1.69547L61.7472,1.72617L61.3305,1.76126L60.9182,1.80073L60.5015,1.84021L60.0892,1.88407L59.677,1.93231L59.2647,1.98056L58.8524,2.02881L58.4401,2.08583L58.0322,2.13846L57.6243,2.19986L57.2164,2.26127L56.8085,2.32267L56.4006,2.38846L55.9927,2.45864L55.5891,2.52882L55.1856,2.60338L54.7821,2.67794L54.3786,2.75689L53.9795,2.84023L53.5803,2.92356L53.1812,3.0069L52.7821,3.09462L52.3829,3.18673L51.9882,3.27883L51.5891,3.37533L51.1943,3.47182L50.7996,3.5727L50.4092,3.67358L50.0145,3.77885L49.6241,3.8885L49.2337,3.99815L48.8434,4.1078L48.4574,4.22184L48.0714,4.34026L47.6855,4.45868L47.2995,4.58149L46.9135,4.7043L46.5319,4.82711L46.1503,4.9587L45.7688,5.08589L45.3872,5.22186L45.01,5.35344L44.6328,5.49379L44.2556,5.62976L43.8784,5.7745L43.5056,5.91924L43.1284,6.06398L42.7599,6.21311L42.3871,6.36223L42.0143,6.51575L41.6459,6.66926L41.2774,6.82716L40.9134,6.98506L40.545,7.14734L40.1809,7.30962L39.8213,7.47629L39.4572,7.64296L39.0976,7.81402L38.7379,7.98508L38.3782,8.16052L38.023,8.33596L37.6633,8.51579L37.3081,8.69562L36.9572,8.87983L36.6063,9.06405L36.251,9.24826L35.9045,9.43686L35.5536,9.62985L35.2071,9.82284L34.8606,10.0158L34.5185,10.2132L34.172,10.415L33.8299,10.6123L33.4922,10.8185L33.1501,11.0202L32.8123,11.2308L32.4746,11.4369L32.1413,11.6474L31.8079,11.8624L31.4746,12.0773L31.1413,12.2922L30.8123,12.5115L30.4833,12.7308L30.1588,12.9545L29.8298,13.1782L29.5052,13.4062L29.1851,13.6343L28.8649,13.8624L28.5447,14.0949L28.2245,14.3273L27.9087,14.5642L27.5929,14.801L27.2771,15.0422L26.9657,15.2835L26.6543,15.5247L26.3429,15.7703L26.0359,16.0203L25.7289,16.266L25.4218,16.516L25.1192,16.7704L24.8166,17.0247L24.5183,17.2791L24.22,17.5379L23.9218,17.7967L23.6235,18.0555L23.3297,18.3186L23.0402,18.5818L22.7463,18.8493L22.4569,19.1169L22.1718,19.3888L21.8823,19.6608L21.5972,19.9327L21.3165,20.2046L21.0358,20.481L20.7551,20.7617L20.4787,21.0424L20.2024,21.3231L19.9261,21.6038L19.6542,21.8889L19.3822,22.174L19.1103,22.4635L18.8427,22.7529L18.5796,23.0424L18.312,23.3363L18.0532,23.6302L17.7901,23.9284L17.5313,24.2223L17.2725,24.5249L17.0181,24.8232L16.7637,25.1258L16.5137,25.4284L16.2593,25.7355L16.0137,26.0425L15.7681,26.3495L15.5225,26.6609L15.2769,26.9723L15.0356,27.2837L14.7988,27.5952L14.5576,27.9109L14.3251,28.2311L14.0882,28.5469L13.8602,28.8671L13.6277,29.1917L13.3996,29.5119L13.1716,29.8364L12.9479,30.161L12.7286,30.49L12.5049,30.8189L12.2856,31.1479L12.0707,31.4812L11.8557,31.8102L11.6408,32.1479L11.4303,32.4812L11.2242,32.8189L11.018,33.1567L10.8119,33.4944L10.6101,33.8365L10.4083,34.1786L10.2066,34.5207L10.0136,34.8672L9.81623,35.2137L9.62324,35.5602L9.43464,35.9067L9.24604,36.2576L9.05744,36.6085L8.87322,36.9638L8.68901,37.3147L8.50918,37.6699L8.32935,38.0252L8.15391,38.3849L7.98285,38.7401L7.80741,39.0998L7.64074,39.4638L7.46968,39.8235L7.3074,40.1875L7.14073,40.5516L6.97845,40.92L6.82055,41.284L6.66265,41.6525L6.50914,42.0209L6.35563,42.3937L6.2065,42.7621L6.05737,43.135L5.91263,43.5078L5.76789,43.885L5.62754,44.2578L5.48719,44.635L5.35122,45.0166L5.21525,45.3938L5.08367,45.7754L4.95209,46.1526L4.82489,46.5385L4.69769,46.9201L4.57488,47.3061L4.45208,47.6877L4.33365,48.0737L4.21961,48.464L4.10119,48.85L3.99154,49.2404L3.88189,49.6307L3.77224,50.0211L3.67136,50.4114L3.56609,50.8062L3.46521,51.2009L3.36872,51.5957L3.27223,51.9904L3.18012,52.3895L3.08801,52.7843L3.00029,53.1834L2.91695,53.5826L2.83362,53.9861L2.75028,54.3852L2.67133,54.7887L2.59677,55.1922L2.52221,55.5958L2.45203,55.9993L2.38185,56.4072L2.31606,56.8107L2.25466,57.2186L2.19325,57.6265L2.13624,58.0388L2.07922,58.4467L2.02658,58.859L1.97395,59.2669L1.9257,59.6792L1.87746,60.0915L1.83798,60.5081L1.79412,60.9204L1.75903,61.3371L1.71956,61.7538L1.68886,62.1705L1.65815,62.5871L1.63184,63.0038L1.60552,63.4249L1.58359,63.8416L1.56166,64.2626L1.54412,64.6837L1.53096,65.1047L1.5178,65.5302L1.50903,65.9512L1.50026,66.3767L1.49587,66.7978L1.49587,67.6487L1.50026,68.0741L1.50903,68.4952L1.5178,68.9206L1.53096,69.3417L1.54412,69.7627L1.56166,70.1838L1.58359,70.6049L1.60552,71.0259L1.63184,71.4426L1.65815,71.8593L1.68886,72.2803L1.71956,72.697L1.75903,73.1093L1.79412,73.526L1.83798,73.9426L1.87746,74.3549L1.9257,74.7672L1.97395,75.1795L2.02658,75.5918L2.07922,75.9997L2.13624,76.412L2.19325,76.8199L2.25466,77.2278L2.31606,77.6357L2.38185,78.0436L2.45203,78.4471L2.52221,78.8506L2.59677,79.2542L2.67133,79.6577L2.75028,80.0612L2.83362,80.4647L2.91695,80.8638L3.00029,81.263L3.08801,81.6621L3.18012,82.0612L3.27223,82.456L3.36872,82.8507L3.46521,83.2455L3.56609,83.6402L3.67136,84.035L3.77224,84.4253L3.88189,84.8157L3.99154,85.206L4.10119,85.5964L4.21961,85.9868L4.33365,86.3727L4.45208,86.7587L4.57488,87.1447L4.69769,87.5263L4.82489,87.9122L4.95209,88.2938L5.08367,88.6754L5.21525,89.0526L5.35122,89.4342L5.48719,89.8114L5.62754,90.1886L5.76789,90.5658L5.91263,90.9386L6.05737,91.3114L6.2065,91.6843L6.35563,92.0571L6.50914,92.4255L6.66265,92.7939L6.82055,93.1624L6.97845,93.5308L7.14073,93.8948L7.3074,94.2589L7.46968,94.6229L7.64074,94.987L7.80741,95.3466L7.98285,95.7063L8.15391,96.0659L8.32935,96.4212L8.50918,96.7765L8.68901,97.1317L8.87322,97.487L9.05744,97.8379L9.24604,98.1888L9.43464,98.5397L9.62324,98.8862L9.81623,99.2371L10.0136,99.5792L10.2066,99.9257L10.4083,100.268L10.6101,100.61L10.8119,100.952L11.018,101.29L11.2242,101.627L11.4303,101.965L11.6408,102.303L11.8557,102.636L12.0707,102.97L12.2856,103.299L12.5049,103.628L12.7286,103.956L12.9479,104.285L13.1716,104.61L13.3996,104.935L13.6277,105.259L13.8602,105.579L14.0882,105.899L14.3251,106.22L14.5576,106.535L14.7988,106.851L15.0356,107.167L15.2769,107.478L15.5225,107.79L15.7681,108.097L16.0137,108.408L16.2593,108.715L16.5137,109.018L16.7637,109.321L17.0181,109.623L17.2725,109.926L17.5313,110.224L17.7901,110.522L18.0532,110.816L18.312,111.11L18.5796,111.404L18.8427,111.693L19.1103,111.983L19.3822,112.272L19.6542,112.558L19.9261,112.843L20.2024,113.128L20.4787,113.408L20.7551,113.689L21.0358,113.965L21.3165,114.242L21.5972,114.518L21.8823,114.79L22.1718,115.062L22.4569,115.33L22.7463,115.597L23.0402,115.865L23.3297,116.128L23.6235,116.391L23.9218,116.654L24.22,116.913L24.5183,117.167L24.8166,117.426L25.1192,117.68L25.4218,117.93L25.7289,118.18L26.0359,118.43L26.3429,118.676L26.6543,118.922L26.9657,119.163L27.2771,119.404L27.5929,119.645L27.9087,119.882L28.2245,120.119L28.5447,120.352L28.8649,120.584L29.1851,120.812L29.5052,121.045L29.8298,121.268L30.1588,121.492L30.4833,121.716L30.8123,121.935L31.1413,122.154L31.4746,122.374L31.8079,122.588L32.1413,122.799L32.4746,123.01L32.8123,123.22L33.1501,123.426L33.4922,123.632L33.8299,123.834L34.172,124.036L34.5185,124.233L34.8606,124.431L35.2071,124.624L35.5536,124.817L35.9045,125.01L36.251,125.198L36.6063,125.387L36.9572,125.571L37.3081,125.751L37.6633,125.931L38.023,126.11L38.3782,126.286L38.7379,126.461L39.0976,126.632L39.4572,126.803L39.8213,126.97L40.1809,127.137L40.545,127.299L40.9134,127.461L41.2774,127.619L41.6459,127.777L42.0143,127.935L42.3871,128.084L42.7599,128.238L43.1284,128.382L43.5056,128.532L43.8784,128.676L44.2556,128.817L44.6328,128.957L45.01,129.093L45.3872,129.229L45.7688,129.361L46.1503,129.492L46.5319,129.619L46.9135,129.746L47.2995,129.869L47.6855,129.988L48.0714,130.106L48.4574,130.225L48.8434,130.339L49.2337,130.453L49.6241,130.562L50.0145,130.668L50.4092,130.773L50.7996,130.874L51.1943,130.975L51.5891,131.075L51.9882,131.168L52.3829,131.26L52.7821,131.352L53.1812,131.44L53.5803,131.527L53.9795,131.611L54.3786,131.69L54.7821,131.768L55.1856,131.843L55.5891,131.918L55.9927,131.988L56.4006,132.058L56.8085,132.124L57.2164,132.19L57.6243,132.251L58.0322,132.308L58.4401,132.365L58.8524,132.418L59.2647,132.47L59.677,132.518L60.0892,132.562L60.5015,132.606L60.9182,132.646L61.3305,132.685L61.7472,132.72L62.1639,132.755L62.5805,132.786L63.0016,132.812L63.4183,132.839L63.8393,132.861L64.256,132.878L64.6771,132.896L65.1025,132.913L65.5236,132.926L65.9446,132.935L66.3701,132.94L66.7955,132.944L67.642,132.944L68.0675,132.94L68.4929,132.935L68.914,132.926L69.3351,132.913L69.7561,132.896L70.1772,132.878L70.5982,132.861L71.0193,132.839L71.436,132.812L71.857,132.786L72.2737,132.755L72.6904,132.72L73.1071,132.685L73.5194,132.646L73.936,132.606L74.3483,132.562L74.7606,132.518L75.1729,132.47L75.5852,132.418L75.9975,132.365L76.4054,132.308L76.8133,132.251L77.2212,132.19L77.6291,132.124L78.037,132.058L78.4405,131.988L78.8484,131.918L79.2519,131.843L79.6555,131.768L80.0546,131.69L80.4581,131.611L80.8572,131.527L81.2564,131.44L81.6555,131.352L82.0546,131.26L82.4494,131.168L82.8485,131.075L83.2433,130.975L83.6336,130.874L84.0284,130.773L84.4187,130.668L84.8135,130.562L85.2038,130.453L85.5898,130.339L85.9802,130.225L86.3661,130.106L86.7521,129.988L87.1381,129.869L87.5241,129.746L87.9056,129.619L88.2872,129.492L88.6688,129.361L89.0504,129.229L89.4276,129.093L89.8048,128.957L90.182,128.817L90.5592,128.676L90.932,128.532L91.3048,128.382L91.6777,128.238L92.0505,128.084L92.4189,127.935L92.7873,127.777L93.1558,127.619L93.5242,127.461L93.8882,127.299L94.2523,127.137L94.6163,126.97L94.9804,126.803L95.34,126.632L95.6997,126.461L96.0593,126.286L96.4146,126.11L96.7699,125.931L97.1251,125.751L97.4804,125.571L97.8313,125.387L98.1822,125.198L98.5331,125.01L98.8839,124.817L99.2304,124.624L99.5769,124.431L99.9191,124.233L100.266,124.036L100.608,123.834L100.945,123.632L101.288,123.426L101.625,123.22L101.959,123.01L102.296,122.799L102.63,122.588L102.963,122.374L103.292,122.154L103.625,121.935L103.954,121.716L104.279,121.492L104.603,121.268L104.928,121.045L105.253,120.812L105.573,120.584L105.893,120.352L106.213,120.119L106.529,119.882L106.845,119.645L107.16,119.404L107.472,119.163L107.783,118.922L108.095,118.676L108.402,118.43L108.709,118.18L109.011,117.93L109.318,117.68L109.617,117.426L109.919,117.167L110.218,116.913L110.516,116.654L110.81,116.391L111.104,116.128L111.397,115.865L111.691,115.597L111.981,115.33L112.266,115.062L112.551,114.79L112.836,114.518L113.121,114.242L113.402,113.965L113.683,113.689L113.959,113.408L114.235,113.128L114.511,112.843L114.783,112.558L115.055,112.272L115.323,111.983L115.59,111.693L115.858,111.404L116.121,111.11L116.384,110.816L116.647,110.522L116.906,110.224L117.165,109.926L117.419,109.623L117.674,109.321L117.924,109.018L118.174,108.715L118.424,108.408L118.669,108.097L118.915,107.79L119.161,107.478L119.402,107.167L119.639,106.851L119.876,106.535L120.112,106.22L120.345,105.899L120.577,105.579L120.81,105.259L121.038,104.935L121.262,104.61L121.49,104.285L121.709,103.956L121.933,103.628L122.148,103.299L122.367,102.97L122.582,102.636L122.792,102.303L123.003,101.965L123.213,101.627L123.42,101.29L123.626,100.952L123.827,100.61L124.029,100.268L124.227,99.9257L124.424,99.5792L124.621,99.2371L124.814,98.8862L125.003,98.5397L125.192,98.1888L125.38,97.8379L125.564,97.487L125.749,97.1317L125.928,96.7765L126.104,96.4212L126.284,96.0659L126.455,95.7063L126.63,95.3466L126.797,94.987L126.968,94.6229L127.13,94.2589L127.297,93.8948L127.455,93.5308L127.617,93.1624L127.771,92.7939L127.928,92.4255L128.082,92.0571L128.231,91.6843L128.38,91.3114L128.525,90.9386L128.67,90.5658L128.81,90.1886L128.95,89.8114L129.086,89.4342L129.222,89.0526L129.354,88.6754L129.485,88.2938L129.613,87.9122L129.74,87.5263L129.863,87.1447L129.985,86.7587L130.104,86.3727L130.218,85.9868L130.332,85.5964L130.446,85.206L130.556,84.8157L130.661,84.4253L130.766,84.035L130.871,83.6402L130.968,83.2455L131.069,82.8507L131.165,82.456L131.257,82.0612L131.345,81.6621L131.437,81.263L131.521,80.8638L131.604,80.4647L131.687,80.0612L131.762,79.6577L131.841,79.2542L131.911,78.8506L131.986,78.4471L132.051,78.0436L132.117,77.6357L132.183,77.2278L132.244,76.8199L132.301,76.412L132.358,75.9997L132.411,75.5918L132.464,75.1795L132.512,74.7672L132.556,74.3549L132.6,73.9426L132.643,73.526L132.679,73.1093L132.714,72.697L132.749,72.2803L132.779,71.8593L132.806,71.4426L132.832,71.0259L132.854,70.6049L132.876,70.1838L132.893,69.7627L132.907,69.3417L132.92,68.9206L132.929,68.4952L132.933,68.0741L132.937,67.6487L132.942,67.2232L132.937,66.7978L132.933,66.3767L132.929,65.9512L132.92,65.5302L132.907,65.1047L132.893,64.6837L132.876,64.2626L132.854,63.8416L132.832,63.4249L132.806,63.0038L132.779,62.5871L132.749,62.1705L132.714,61.7538L132.679,61.3371L132.643,60.9204L132.6,60.5081L132.556,60.0915L132.512,59.6792L132.464,59.2669L132.411,58.859L132.358,58.4467L132.301,58.0388L132.244,57.6265L132.183,57.2186L132.117,56.8107L132.051,56.4072L131.986,55.9993L131.911,55.5958L131.841,55.1922L131.762,54.7887L131.687,54.3852L131.604,53.9861L131.521,53.5826L131.437,53.1834L131.345,52.7843L131.257,52.3895L131.165,51.9904L131.069,51.5957L130.968,51.2009L130.871,50.8062L130.766,50.4114L130.661,50.0211L130.556,49.6307L130.446,49.2404L130.332,48.85L130.218,48.464L130.104,48.0737L129.985,47.6877L129.863,47.3061L129.74,46.9201L129.613,46.5385L129.485,46.1526L129.354,45.7754L129.222,45.3938L129.086,45.0166L128.95,44.635L128.81,44.2578L128.67,43.885L128.525,43.5078L128.38,43.135L128.231,42.7621L128.082,42.3937L127.928,42.0209L127.771,41.6525L127.617,41.284L127.455,40.92L127.297,40.5516L127.13,40.1875L126.968,39.8235L126.797,39.4638L126.63,39.0998L126.455,38.7401L126.284,38.3849L126.104,38.0252L125.928,37.6699L125.749,37.3147L125.564,36.9638L125.38,36.6085L125.192,36.2576L125.003,35.9067L124.814,35.5602L124.621,35.2137L124.424,34.8672L124.227,34.5207L124.029,34.1786L123.827,33.8365L123.626,33.4944L123.42,33.1567L123.213,32.8189L123.003,32.4812L122.792,32.1479L122.582,31.8102L122.367,31.4812L122.148,31.1479L121.933,30.8189L121.709,30.49L121.49,30.161L121.262,29.8364L121.038,29.5119L120.81,29.1917L120.577,28.8671L120.345,28.5469L120.112,28.2311L119.876,27.9109L119.639,27.5952L119.402,27.2837L119.161,26.9723L118.915,26.6609L118.669,26.3495L118.424,26.0425L118.174,25.7355L117.924,25.4284L117.674,25.1258L117.419,24.8232L117.165,24.5249L116.906,24.2223L116.647,23.9284L116.384,23.6302L116.121,23.3363L115.858,23.0424L115.59,22.7529L115.323,22.4635L115.055,22.174L114.783,21.8889L114.511,21.6038L114.235,21.3231L113.959,21.0424L113.683,20.7617L113.402,20.481L113.121,20.2046L112.836,19.9327L112.551,19.6608L112.266,19.3888L111.981,19.1169L111.691,18.8493L111.397,18.5818L111.108,18.3186L110.81,18.0555L110.516,17.7967L110.218,17.5379L109.919,17.2791L109.617,17.0247L109.318,16.7704L109.011,16.516L108.709,16.266L108.402,16.0203L108.095,15.7703L107.783,15.5247L107.472,15.2835L107.16,15.0422L106.845,14.801L106.529,14.5642L106.213,14.3273L105.893,14.0949L105.573,13.8624L105.253,13.6343L104.928,13.4062L104.603,13.1782L104.279,12.9545L103.954,12.7308L103.625,12.5115L103.292,12.2922L102.963,12.0773L102.63,11.8624L102.296,11.6474L101.959,11.4369L101.625,11.2308L101.288,11.0202L100.945,10.8185L100.608,10.6123L100.266,10.415L99.9191,10.2132L99.5769,10.0158L99.2304,9.82284L98.8839,9.62985L98.5331,9.43686L98.1822,9.24826L97.8313,9.06405L97.4804,8.87983L97.1251,8.69562L96.7699,8.51579L96.4146,8.33596L96.0593,8.16052L95.6997,7.98508L95.34,7.81402L94.9804,7.64296L94.6163,7.47629L94.2523,7.30962L93.8882,7.14734L93.5242,6.98506L93.1558,6.82716L92.7873,6.66926L92.4189,6.51575L92.0505,6.36223L91.6777,6.21311L91.3048,6.06398L90.932,5.91924L90.5592,5.7745L90.182,5.62976L89.8048,5.49379L89.4276,5.35344L89.0504,5.22186L88.6688,5.08589L88.2872,4.9587L87.9056,4.82711L87.5241,4.7043L87.1381,4.58149L86.7521,4.45868L86.3661,4.34026L85.9802,4.22184L85.5898,4.1078L85.2038,3.99815L84.8135,3.8885L84.4187,3.77885L84.0284,3.67358L83.6336,3.5727L83.2433,3.47182L82.8485,3.37533L82.4494,3.27883L82.0546,3.18673L81.6555,3.09462L81.2564,3.0069L80.8572,2.92356L80.4581,2.84023L80.0546,2.75689L79.6555,2.67794L79.2519,2.60338L78.8484,2.52882L78.4405,2.45864L78.037,2.38846L77.6291,2.32267L77.2212,2.26127L76.8133,2.19986L76.4054,2.13846L75.9975,2.08583L75.5852,2.02881L75.1729,1.98056L74.7606,1.93231L74.3483,1.88407L73.936,1.84021L73.5194,1.80073L73.1071,1.76126L72.6904,1.72617L72.2737,1.69547L71.857,1.66476L71.436,1.63406L71.0193,1.61213L70.5982,1.58582L70.1772,1.56827L69.7561,1.55073L69.3351,1.53757L68.914,1.52441L68.4929,1.51564L68.0675,1.50687L67.642,1.50248L66.7955,1.50248Z" display="none"/>
    <ellipse id="Glow-yellow" fill="url(#Gradient-0)" rx="15.212" ry="15.212" fill-rule="evenodd" clip-rule="evenodd" stroke-linecap="round" stroke-linejoin="round" stroke-miterlimit="1.5" transform="translate(-2258.4,-2203.96) scale(4.38606,4.38606) translate(530.23,517.819)"/>
    <ellipse id="Glow" fill="url(#Gradient-1)" rx="15.212" ry="15.212" transform="translate(-2258.4,-2203.96) scale(4.38606,4.38606) translate(530.23,517.819)"/>
    <g id="Blush" fill-rule="evenodd" clip-rule="evenodd" stroke-linecap="round" stroke-linejoin="round" stroke-miterlimit="1.5" opacity="0" transform="translate(-498.743,-440.741) translate(0,0) translate(0,0)">
        <ellipse fill="url(#Gradient-2)" rx="15.212" ry="15.212" transform="translate(0,0) translate(530.23,517.819)"/>
        <ellipse fill="url(#Gradient-2)" rx="15.212" ry="15.212" transform="translate(71.4688,0) translate(530.23,517.819)"/>
    </g>
    <g id="Face" transform="translate(67.2234,79.0081) translate(0,0) translate(-34.6566,-25.8935)">
        <g id="All-mouth" transform="translate(34.7184,37.4392) translate(0,0) translate(-25.876,-13.1552)">
            <path id="Mouth" d="M549.643,498.575C548.668,497.5,547.223,496.7,545.638,496.7C544.052,496.7,542.608,497.5,541.633,498.575" fill="none" stroke="#1b1a65" stroke-width="2.44px" clip-rule="evenodd" fill-rule="evenodd" stroke-linecap="round" stroke-linejoin="round" stroke-miterlimit="1.5" opacity="1" transform="translate(25.5908,23.9271) scale(1.8624,1.82405) translate(-545.638,-497.637)"/>
            <path d="M67.2227,103.709C62.4357,103.709,57.4987,102.74,53.1217,100.504C49.4157,98.6116,46.1117,95.8116,43.6407,91.9236C40.0217,86.2296,41.4677,77.3986,48.6457,77.3986L85.7987,77.3986C92.9777,77.3986,94.4237,86.2296,90.8047,91.9236C88.3337,95.8116,85.0297,98.6116,81.3237,100.504C76.9467,102.74,72.0087,103.709,67.2227,103.709Z" fill="#1b1a65" fill-rule="evenodd" clip-rule="evenodd" stroke-linecap="round" stroke-linejoin="round" stroke-miterlimit="1.5" display="none" transform="translate(-41.4092,-77.3986)"/>
            <path id="Mouth-Fill" d="M545.73,497.074L553.248,495.978C553.915,495.881,554.534,496.342,554.631,497.009C554.728,497.676,554.267,498.295,553.6,498.392L546.082,499.488L538.565,500.585C537.898,500.683,537.279,500.221,537.182,499.554C537.084,498.887,537.546,498.268,538.213,498.171Z" fill="#1b1a65" fill-rule="evenodd" stroke="none" fill-opacity="1" opacity="0" transform="translate(25.3494,19.7098) translate(0,0) scale(1.8624,1.82405) translate(-545.638,-497.637)"/>
            <path id="Tongue" d="M61.2601,101.337C61.4421,100.192,63.7881,99.2861,66.6511,99.2861C69.4691,99.2861,71.7861,100.164,72.0311,101.284C70.4331,101.51,68.5741,101.653,66.4371,101.653C64.4651,101.653,62.7461,101.531,61.2601,101.337Z" fill="#cb4868" fill-rule="evenodd" clip-rule="evenodd" stroke-linecap="round" stroke-linejoin="round" stroke-miterlimit="1.5" opacity="0" clip-path="url(#ClipPath-1)" transform="translate(-41.0548,-77.3986)"/>
            <path d="M61.2601,101.337C61.4421,100.192,63.7881,99.2861,66.6511,99.2861C69.4691,99.2861,71.7861,100.164,72.0311,101.284C70.4331,101.51,68.5741,101.653,66.4371,101.653C64.4651,101.653,62.7461,101.531,61.2601,101.337Z" fill="#cb4868" fill-rule="evenodd" clip-rule="evenodd" stroke-linecap="round" stroke-linejoin="round" stroke-miterlimit="1.5" display="none" transform="translate(-41.0548,-77.3977)"/>
            <g id="Teeth" opacity="0" clip-path="url(#ClipPath-2)" transform="translate(26.0486,7.9165) translate(0,0) translate(-21.2855,-3.9165)">
                <path d="M46.1723,77.8466C46.9413,77.5566,47.7743,77.3986,48.6453,77.3986L85.7983,77.3986C86.8503,77.3986,87.8483,77.6296,88.7433,78.0446L87.5673,85.2316L57.7053,85.2316L55.8093,83.2316L53.9823,85.2316L47.3803,85.2316L46.1723,77.8466Z" fill="#fff" fill-rule="evenodd" clip-rule="evenodd" stroke-linecap="round" stroke-linejoin="round" stroke-miterlimit="1.5" transform="translate(-46.1723,-77.3986)"/>
                <path d="M46.1953,77.8376C46.9583,77.5536,47.7833,77.3986,48.6453,77.3986L85.7983,77.3986C86.8373,77.3986,87.8233,77.6246,88.7103,78.0296L88.2493,80.1276L46.6983,80.1276L46.1953,77.8376Z" fill="#e8d9d4" fill-rule="evenodd" clip-rule="evenodd" stroke-linecap="round" stroke-linejoin="round" stroke-miterlimit="1.5" transform="translate(-46.1723,-77.3986)"/>
            </g>
        </g>
        <path id="Nose" d="M60.5917,81.2677C59.4643,81.2677,58.5502,82.1812,58.5495,83.3085C58.5498,83.3095,58.5498,83.3105,58.5498,83.3115C58.5498,86.4113,62.436,88.9282,67.2224,88.9282C72.0089,88.9282,75.895,86.4113,75.895,83.3115L75.895,83.3085C75.8944,82.1812,74.9802,81.2677,73.8528,81.2677L60.5917,81.2677Z" fill="#ffbdaa" transform="translate(-32.5668,-53.1146) translate(0,0) translate(0,0)"/>
        <g id="Eyes" transform="translate(34.6557,14.3672) translate(0,0) translate(-32.8905,-6.02666)">
            <path id="L-Lash" d="M50.6202,68.6537C49.8846,65.5934,46.4629,62.376,42.4769,62.376C38.4893,62.376,35.0675,65.5934,34.332,68.6537" fill="none" stroke="#1b1a65" stroke-width="4.49526" transform="translate(-34.332,-61.4551) translate(0,0) translate(0,0)"/>
            <path id="L-Pupil" fill="#1b1a65" d="M2.065,0C2.065,1.14047,1.14047,2.065,0,2.065C-1.14047,2.065,-2.065,1.14047,-2.065,0C-2.065,-1.14047,-1.14047,-2.065,0,-2.065C1.14047,-2.065,2.065,-1.14047,2.065,0Z" transform="translate(-1376.38,-1335.35) translate(0,0) scale(2.91848,2.91848) translate(474.378,459.615)"/>
            <path id="R-Lash" d="M100.113,68.6537C99.3776,65.5934,95.9559,62.376,91.9699,62.376C87.9823,62.376,84.5605,65.5934,83.825,68.6537" fill="none" stroke="#1b1a65" stroke-width="4.49526" transform="translate(-34.332,-61.4551) translate(0,0) translate(0,0)"/>
            <path id="R-Pupil" fill="#1b1a65" d="M2.065,0C2.065,1.14047,1.14047,2.065,0,2.065C-1.14047,2.065,-2.065,1.14047,-2.065,0C-2.065,-1.14047,-1.14047,-2.065,0,-2.065C1.14047,-2.065,2.065,-1.14047,2.065,0Z" transform="translate(-1327.12,-1335.35) translate(0,0) scale(2.91848,2.91848) translate(474.378,459.615)"/>
        </g>
        <g id="Brows" transform="translate(-32.5668,-53.1146)">
            <path id="L-Brow" d="M54.0528,53.1146L54.0528,53.9236C54.0528,55.4426,53.4498,56.8986,52.3758,57.9726C51.3018,59.0466,49.8458,59.6496,48.3268,59.6496L32.5668,59.6496" fill="none" stroke="#f9bc79" stroke-width="4"/>
            <path id="R-Brow" d="M78.8129,53.1146L78.8129,53.9236C78.8129,55.4426,79.4159,56.8986,80.4899,57.9726C81.5639,59.0466,83.0199,59.6496,84.5389,59.6496L101.88,59.6496" fill="none" stroke="#f9bc79" stroke-width="4"/>
        </g>
    </g>
    <script><![CDATA[if(KeyshapeJS.version.indexOf('1.')!=0)throw Error('Expected KeyshapeJS v1.*.*');window.ks=document.ks=KeyshapeJS;(function(ks){
ks.animate("#Blush__face",[{p:'mpath',t:[7200,7600,8500,8733,8900,9067,9233,9400,10000,10267],v:['0%','19.888741%','19.888741%','27.355179%','38.677589%','50%','61.322411%','72.644821%','72.644821%','100%'],e:[[0],[0],[0],[0],[0],[0],[0],[0],[0],[0]],mp:"M-498.743,-440.741L-498.743,-450.541L-498.743,-450.541L-498.743,-454.22L-498.743,-459.799L-498.743,-454.22L-498.743,-459.799L-498.743,-454.22L-498.743,-454.22L-498.743,-440.741"},{p:'opacity',t:[5867,7100,7200,7600,8500,8833,10000,10267,10533,12000],v:[0,0.2,0.2,0.4,0.4,0.6,0.6,0.4,0.4,0],e:[[0],[0],[0],[0],[0],[0],[0],[0],[0],[0]]}],
"#Face__face",[{p:'mpath',t:[8733,8900,9067,9233,9400],v:['0%','25%','50%','75%','100%'],e:[[1,0,0,0.58,1],[1,0,0,0.58,1],[1,0,0,0.58,1],[1,0,0,0.58,1],[0]],mp:"M67.2234,79.0081L67.2234,73.0081L67.2234,79.0081L67.2234,73.0081L67.2234,79.0081"}],
"#All-mouth__face",[{p:'mpath',t:[8500,8833],v:['0%','100%'],e:[[0],[0]],mp:"M34.7184,37.4392L34.7184,31.4392"}],
"#Mouth__face",[{p:'opacity',t:[4167,4200],v:[1,0],e:[[0],[0]]},{p:'d',t:[3933,4200],v:["path('M549.643,498.575C548.668,497.5,547.223,496.7,545.638,496.7C544.052,496.7,542.608,497.5,541.633,498.575')","path('M553.424,494.992C553.424,494.992,545.906,496.088,545.906,496.088C545.906,496.088,538.389,497.185,538.389,497.185')"],e:[[0],[0]]}],
"#Mouth-Fill__face",[{p:'mpath',t:[11533,12000],v:['0%','100%'],e:[[0],[0]],mp:"M25.3494,19.7098L25.5908,29.7159"},{p:'opacity',t:[4167,4200],v:[0,1],e:[[0],[0]]},{p:'d',t:[4167,5600,5833,7000,7100,7200,7600,10000,10267,11533,12000],v:["path('M545.73,497.074C545.73,497.074,553.248,495.978,553.248,495.978C553.915,495.881,554.534,496.342,554.631,497.009C554.728,497.676,554.267,498.295,553.6,498.392C553.6,498.392,546.082,499.488,546.082,499.488C546.082,499.488,538.565,500.585,538.565,500.585C537.898,500.683,537.279,500.221,537.182,499.554C537.084,498.887,537.546,498.268,538.213,498.171C538.213,498.171,545.73,497.074,545.73,497.074Z')","path('M545.73,497.074C545.73,497.074,553.248,495.978,553.248,495.978C553.915,495.881,554.534,496.342,554.631,497.009C554.728,497.676,554.267,498.295,553.6,498.392C553.6,498.392,546.082,499.488,546.082,499.488C546.082,499.488,538.565,500.585,538.565,500.585C537.898,500.683,537.279,500.221,537.182,499.554C537.084,498.887,537.546,498.268,538.213,498.171C538.213,498.171,545.73,497.074,545.73,497.074Z')","path('M545.698,495.904C547.691,495.904,549.352,496.396,550.592,496.951C551.099,497.201,551.41,497.732,551.384,498.303C551.357,498.874,550.998,499.372,550.47,499.572C549.314,499.882,547.742,500.129,545.698,500.129C543.673,500.129,542.145,499.888,541.031,499.59C540.508,499.376,540.162,498.866,540.15,498.294C540.138,497.722,540.464,497.199,540.977,496.963C542.143,496.379,543.739,495.904,545.698,495.904Z')","path('M545.698,495.904C547.691,495.904,549.352,496.396,550.592,496.951C551.099,497.201,551.41,497.732,551.384,498.303C551.357,498.874,550.998,499.372,550.47,499.572C549.314,499.882,547.742,500.129,545.698,500.129C543.673,500.129,542.145,499.888,541.031,499.59C540.508,499.376,540.162,498.866,540.15,498.294C540.138,497.722,540.464,497.199,540.977,496.963C542.143,496.379,543.739,495.904,545.698,495.904Z')","path('M545.789,496.942C552.769,496.942,555.711,495.055,556.549,495.012C557.387,494.969,557.623,495.187,557.881,495.692C558.139,496.197,557.817,496.898,557.086,497.227C556.355,497.556,551.695,499.332,545.789,499.332C539.346,499.332,535.67,497.591,534.556,497.293C534.033,497.079,533.745,496.541,533.805,495.977C533.865,495.413,533.976,495.276,534.556,494.947C535.136,494.618,539.077,496.942,545.789,496.942Z')","path('M545.789,496.942C552.769,496.942,555.711,495.055,556.549,495.012C557.387,494.969,557.623,495.187,557.881,495.692C558.139,496.197,557.817,496.898,557.086,497.227C556.355,497.556,551.695,499.332,545.789,499.332C539.346,499.332,535.67,497.591,534.556,497.293C534.033,497.079,533.745,496.541,533.805,495.977C533.865,495.413,533.976,495.276,534.556,494.947C535.136,494.618,539.077,496.942,545.789,496.942Z')","path('M545.768,486.849C545.768,486.849,556.046,486.849,556.046,486.849C559.958,486.849,560.746,491.662,558.774,494.766C557.427,496.885,555.626,498.411,553.607,499.442C551.221,500.661,548.53,501.189,545.921,501.189C543.312,501.189,540.621,500.661,538.235,499.442C536.216,498.411,534.415,496.885,533.068,494.766C531.095,491.662,531.884,486.849,535.796,486.849C535.796,486.849,545.768,486.849,545.768,486.849Z')","path('M545.768,486.849C545.768,486.849,556.046,486.849,556.046,486.849C559.958,486.849,560.746,491.662,558.774,494.766C557.427,496.885,555.626,498.411,553.607,499.442C551.221,500.661,548.53,501.189,545.921,501.189C543.312,501.189,540.621,500.661,538.235,499.442C536.216,498.411,534.415,496.885,533.068,494.766C531.095,491.662,531.884,486.849,535.796,486.849C535.796,486.849,545.768,486.849,545.768,486.849Z')","path('M545.789,496.942C552.769,496.942,555.711,495.055,556.549,495.012C557.387,494.969,557.623,495.187,557.881,495.692C558.139,496.197,557.817,496.898,557.086,497.227C556.355,497.556,551.695,499.332,545.789,499.332C539.346,499.332,535.67,497.591,534.556,497.293C534.033,497.079,533.745,496.541,533.805,495.977C533.865,495.413,533.976,495.276,534.556,494.947C535.136,494.618,539.077,496.942,545.789,496.942Z')","path('M545.789,496.942C552.769,496.942,555.711,495.055,556.549,495.012C557.387,494.969,557.623,495.187,557.881,495.692C558.139,496.197,557.817,496.898,557.086,497.227C556.355,497.556,551.695,499.332,545.789,499.332C539.346,499.332,535.67,497.591,534.556,497.293C534.033,497.079,533.745,496.541,533.805,495.977C533.865,495.413,533.976,495.276,534.556,494.947C535.136,494.618,539.077,496.942,545.789,496.942Z')","path('M545.638,495.48C548.184,495.48,549.93,497.075,550.547,497.755C550.999,498.254,550.962,499.026,550.463,499.479C549.964,499.931,549.192,499.894,548.739,499.395C548.332,498.945,547.249,497.92,545.638,497.92C544.027,497.92,542.945,498.945,542.537,499.395C542.084,499.894,541.312,499.931,540.813,499.479C540.314,499.026,540.277,498.254,540.729,497.755C541.346,497.075,542.953,495.48,545.638,495.48Z')"],e:[[0],[0],[0],[0],[0],[0],[0],[0],[0],[0],[0]]}],
"#Tongue__face",[{p:'opacity',t:[5700,5833,7000,7100,7200,7433,10000,10267],v:[0,1,1,0,0,1,1,0],e:[[0],[0],[0],[0],[0],[0],[0],[0]]},{p:'d',t:[0,7067,7100],v:["path('M61.2601,101.337C61.4421,100.192,63.7881,99.2861,66.6511,99.2861C69.4691,99.2861,71.7861,100.164,72.0311,101.284C70.4331,101.51,68.5741,101.653,66.4371,101.653C64.4651,101.653,62.7461,101.531,61.2601,101.337C61.2601,101.337,61.2601,101.337,61.2601,101.337C61.2601,101.337,61.2601,101.337,61.2601,101.337C61.2601,101.337,61.2601,101.337,61.2601,101.337C61.2601,101.337,61.2601,101.337,61.2601,101.337C61.2601,101.337,61.2601,101.337,61.2601,101.337Z')","path('M61.2601,101.337C61.4421,100.192,63.7881,99.2861,66.6511,99.2861C69.4691,99.2861,71.7861,100.164,72.0311,101.284C70.4331,101.51,68.5741,101.653,66.4371,101.653C64.4651,101.653,62.7461,101.531,61.2601,101.337C61.2601,101.337,61.2601,101.337,61.2601,101.337C61.2601,101.337,61.2601,101.337,61.2601,101.337C61.2601,101.337,61.2601,101.337,61.2601,101.337C61.2601,101.337,61.2601,101.337,61.2601,101.337C61.2601,101.337,61.2601,101.337,61.2601,101.337Z')","path('M56.4017,101.903C56.3747,101.762,56.3597,101.617,56.3597,101.468C56.3597,101.468,56.3597,101.465,56.3597,101.465C56.3597,98.0616,61.2277,95.2986,67.2227,95.2986C73.2177,95.2986,78.0847,98.0616,78.0847,101.465C78.0847,101.465,78.0847,101.468,78.0847,101.468C78.0847,101.617,78.0697,101.762,78.0427,101.903C74.7667,103.057,71.1137,103.704,67.2637,103.709C67.2637,103.709,67.1817,103.709,67.1817,103.709C63.3307,103.704,59.6777,103.057,56.4017,101.903Z')"],e:[[0],[0],[0]]}],
"#Mouth-Fill-3__face",[{p:'opacity',t:[4167,4200],v:[0,1],e:[[0],[0]]},{p:'d',t:[4167,5600,5833,7000,7100,7200,7600,10000,10267],v:["path('M545.73,497.074C545.73,497.074,553.248,495.978,553.248,495.978C553.915,495.881,554.534,496.342,554.631,497.009C554.728,497.676,554.267,498.295,553.6,498.392C553.6,498.392,546.082,499.488,546.082,499.488C546.082,499.488,538.565,500.585,538.565,500.585C537.898,500.683,537.279,500.221,537.182,499.554C537.084,498.887,537.546,498.268,538.213,498.171C538.213,498.171,545.73,497.074,545.73,497.074Z')","path('M545.73,497.074C545.73,497.074,553.248,495.978,553.248,495.978C553.915,495.881,554.534,496.342,554.631,497.009C554.728,497.676,554.267,498.295,553.6,498.392C553.6,498.392,546.082,499.488,546.082,499.488C546.082,499.488,538.565,500.585,538.565,500.585C537.898,500.683,537.279,500.221,537.182,499.554C537.084,498.887,537.546,498.268,538.213,498.171C538.213,498.171,545.73,497.074,545.73,497.074Z')","path('M545.698,495.904C547.691,495.904,549.352,496.396,550.592,496.951C551.099,497.201,551.41,497.732,551.384,498.303C551.357,498.874,550.998,499.372,550.47,499.572C549.314,499.882,547.742,500.129,545.698,500.129C543.673,500.129,542.145,499.888,541.031,499.59C540.508,499.376,540.162,498.866,540.15,498.294C540.138,497.722,540.464,497.199,540.977,496.963C542.143,496.379,543.739,495.904,545.698,495.904Z')","path('M545.698,495.904C547.691,495.904,549.352,496.396,550.592,496.951C551.099,497.201,551.41,497.732,551.384,498.303C551.357,498.874,550.998,499.372,550.47,499.572C549.314,499.882,547.742,500.129,545.698,500.129C543.673,500.129,542.145,499.888,541.031,499.59C540.508,499.376,540.162,498.866,540.15,498.294C540.138,497.722,540.464,497.199,540.977,496.963C542.143,496.379,543.739,495.904,545.698,495.904Z')","path('M545.789,496.942C552.769,496.942,555.711,495.055,556.549,495.012C557.387,494.969,557.623,495.187,557.881,495.692C558.139,496.197,557.817,496.898,557.086,497.227C556.355,497.556,551.695,499.332,545.789,499.332C539.346,499.332,535.67,497.591,534.556,497.293C534.033,497.079,533.745,496.541,533.805,495.977C533.865,495.413,533.976,495.276,534.556,494.947C535.136,494.618,539.077,496.942,545.789,496.942Z')","path('M545.789,496.942C552.769,496.942,555.711,495.055,556.549,495.012C557.387,494.969,557.623,495.187,557.881,495.692C558.139,496.197,557.817,496.898,557.086,497.227C556.355,497.556,551.695,499.332,545.789,499.332C539.346,499.332,535.67,497.591,534.556,497.293C534.033,497.079,533.745,496.541,533.805,495.977C533.865,495.413,533.976,495.276,534.556,494.947C535.136,494.618,539.077,496.942,545.789,496.942Z')","path('M545.768,486.849C545.768,486.849,556.046,486.849,556.046,486.849C559.958,486.849,560.746,491.662,558.774,494.766C557.427,496.885,555.626,498.411,553.607,499.442C551.221,500.661,548.53,501.189,545.921,501.189C543.312,501.189,540.621,500.661,538.235,499.442C536.216,498.411,534.415,496.885,533.068,494.766C531.095,491.662,531.884,486.849,535.796,486.849C535.796,486.849,545.768,486.849,545.768,486.849Z')","path('M545.768,486.849C545.768,486.849,556.046,486.849,556.046,486.849C559.958,486.849,560.746,491.662,558.774,494.766C557.427,496.885,555.626,498.411,553.607,499.442C551.221,500.661,548.53,501.189,545.921,501.189C543.312,501.189,540.621,500.661,538.235,499.442C536.216,498.411,534.415,496.885,533.068,494.766C531.095,491.662,531.884,486.849,535.796,486.849C535.796,486.849,545.768,486.849,545.768,486.849Z')","path('M545.789,496.942C552.769,496.942,555.711,495.055,556.549,495.012C557.387,494.969,557.623,495.187,557.881,495.692C558.139,496.197,557.817,496.898,557.086,497.227C556.355,497.556,551.695,499.332,545.789,499.332C539.346,499.332,535.67,497.591,534.556,497.293C534.033,497.079,533.745,496.541,533.805,495.977C533.865,495.413,533.976,495.276,534.556,494.947C535.136,494.618,539.077,496.942,545.789,496.942Z')"],e:[[0],[0],[0],[0],[0],[0],[0],[0],[0]]}],
"#Teeth__face",[{p:'mpath',t:[7300,7600],v:['0%','100%'],e:[[0],[0]],mp:"M26.0486,7.9165L26.0486,3.9165"},{p:'opacity',t:[7300,7600],v:[0,1],e:[[0],[0]]}],
"#Mouth-Fill-2__face",[{p:'opacity',t:[4167,4200],v:[0,1],e:[[0],[0]]},{p:'d',t:[4167,5600,5833,7000,7100,7200,7600,10000,10267,11533,12000],v:["path('M545.73,497.074C545.73,497.074,553.248,495.978,553.248,495.978C553.915,495.881,554.534,496.342,554.631,497.009C554.728,497.676,554.267,498.295,553.6,498.392C553.6,498.392,546.082,499.488,546.082,499.488C546.082,499.488,538.565,500.585,538.565,500.585C537.898,500.683,537.279,500.221,537.182,499.554C537.084,498.887,537.546,498.268,538.213,498.171C538.213,498.171,545.73,497.074,545.73,497.074Z')","path('M545.73,497.074C545.73,497.074,553.248,495.978,553.248,495.978C553.915,495.881,554.534,496.342,554.631,497.009C554.728,497.676,554.267,498.295,553.6,498.392C553.6,498.392,546.082,499.488,546.082,499.488C546.082,499.488,538.565,500.585,538.565,500.585C537.898,500.683,537.279,500.221,537.182,499.554C537.084,498.887,537.546,498.268,538.213,498.171C538.213,498.171,545.73,497.074,545.73,497.074Z')","path('M545.698,495.904C547.691,495.904,549.352,496.396,550.592,496.951C551.099,497.201,551.41,497.732,551.384,498.303C551.357,498.874,550.998,499.372,550.47,499.572C549.314,499.882,547.742,500.129,545.698,500.129C543.673,500.129,542.145,499.888,541.031,499.59C540.508,499.376,540.162,498.866,540.15,498.294C540.138,497.722,540.464,497.199,540.977,496.963C542.143,496.379,543.739,495.904,545.698,495.904Z')","path('M545.698,495.904C547.691,495.904,549.352,496.396,550.592,496.951C551.099,497.201,551.41,497.732,551.384,498.303C551.357,498.874,550.998,499.372,550.47,499.572C549.314,499.882,547.742,500.129,545.698,500.129C543.673,500.129,542.145,499.888,541.031,499.59C540.508,499.376,540.162,498.866,540.15,498.294C540.138,497.722,540.464,497.199,540.977,496.963C542.143,496.379,543.739,495.904,545.698,495.904Z')","path('M545.789,496.942C552.769,496.942,555.711,495.055,556.549,495.012C557.387,494.969,557.623,495.187,557.881,495.692C558.139,496.197,557.817,496.898,557.086,497.227C556.355,497.556,551.695,499.332,545.789,499.332C539.346,499.332,535.67,497.591,534.556,497.293C534.033,497.079,533.745,496.541,533.805,495.977C533.865,495.413,533.976,495.276,534.556,494.947C535.136,494.618,539.077,496.942,545.789,496.942Z')","path('M545.789,496.942C552.769,496.942,555.711,495.055,556.549,495.012C557.387,494.969,557.623,495.187,557.881,495.692C558.139,496.197,557.817,496.898,557.086,497.227C556.355,497.556,551.695,499.332,545.789,499.332C539.346,499.332,535.67,497.591,534.556,497.293C534.033,497.079,533.745,496.541,533.805,495.977C533.865,495.413,533.976,495.276,534.556,494.947C535.136,494.618,539.077,496.942,545.789,496.942Z')","path('M545.768,488.806C545.768,488.806,556.046,488.806,556.046,488.806C559.958,488.806,560.746,493.619,558.774,496.723C557.427,498.842,555.626,500.368,553.607,501.399C551.221,502.618,548.53,503.146,545.921,503.146C543.312,503.146,540.621,502.618,538.235,501.399C536.216,500.368,534.415,498.842,533.068,496.723C531.095,493.619,531.884,488.806,535.796,488.806C535.796,488.806,545.768,488.806,545.768,488.806Z')","path('M545.768,488.806C545.768,488.806,556.046,488.806,556.046,488.806C559.958,488.806,560.746,493.619,558.774,496.723C557.427,498.842,555.626,500.368,553.607,501.399C551.221,502.618,548.53,503.146,545.921,503.146C543.312,503.146,540.621,502.618,538.235,501.399C536.216,500.368,534.415,498.842,533.068,496.723C531.095,493.619,531.884,488.806,535.796,488.806C535.796,488.806,545.768,488.806,545.768,488.806Z')","path('M545.768,499.222C552.748,499.222,555.69,497.335,556.528,497.292C557.366,497.249,557.602,497.467,557.86,497.972C558.118,498.477,557.796,499.178,557.065,499.507C556.334,499.836,551.674,501.612,545.768,501.612C539.325,501.612,535.649,499.871,534.535,499.573C534.012,499.359,533.724,498.821,533.784,498.257C533.844,497.693,533.955,497.556,534.535,497.227C535.115,496.898,539.056,499.222,545.768,499.222Z')","path('M545.768,499.222C552.748,499.222,555.69,497.335,556.528,497.292C557.366,497.249,557.602,497.467,557.86,497.972C558.118,498.477,557.796,499.178,557.065,499.507C556.334,499.836,551.674,501.612,545.768,501.612C539.325,501.612,535.649,499.871,534.535,499.573C534.012,499.359,533.724,498.821,533.784,498.257C533.844,497.693,533.955,497.556,534.535,497.227C535.115,496.898,539.056,499.222,545.768,499.222Z')","path('M545.638,497.637C548.184,497.637,549.93,499.232,550.547,499.912C550.999,500.411,550.962,501.183,550.463,501.636C549.964,502.088,549.192,502.051,548.739,501.552C548.332,501.102,547.249,500.077,545.638,500.077C544.027,500.077,542.945,501.102,542.537,501.552C542.084,502.051,541.312,502.088,540.813,501.636C540.314,501.183,540.277,500.411,540.729,499.912C541.346,499.232,542.953,497.637,545.638,497.637Z')"],e:[[0],[0],[0],[0],[0],[0],[0],[0],[0],[0],[0]]}],
"#Nose__face",[{p:'mpath',t:[3933,4200,5600,5700,6000,7200,7600,8500,8833,10000,10267,11533,12000],v:['0%','6.066902%','6.066902%','9.296508%','9.709833%','9.709833%','35.368186%','35.368186%','50.20207%','50.20207%','90.694307%','90.694307%','100%'],e:[[1,0,0,0.58,1],[0],[0],[0],[0],[0],[0],[0],[0],[0],[0],[0],[0]],mp:"M-32.5668,-53.1146L-32.5668,-56.3776L-32.5668,-56.3776L-32.5668,-58.1146L-32.7891,-58.1146L-32.7891,-58.1146L-32.7891,-71.9146L-32.7891,-71.9146L-32.7891,-79.8928L-32.7891,-79.8928L-32.7891,-58.1146L-32.7891,-58.1146L-32.5668,-53.1146"}],
"#Eyes__face",[{p:'mpath',t:[3933,4200,5600,5700,6000,7200,7600,8500,8833,10000,10267,11533,12000],v:['0%','9.683032%','9.683032%','15.519614%','16.168943%','16.168943%','36.013615%','36.013615%','50.317862%','50.317862%','84.466782%','84.466782%','100%'],e:[[1,0,0,0.58,1],[0],[0],[0],[0],[0],[0],[0],[0],[0],[0],[0],[0]],mp:"M34.6557,14.3672L34.6557,11.0492L34.6557,11.0492L34.6557,9.04923L34.4332,9.04922L34.4332,9.04922L34.4332,2.24922L34.4332,2.24922L34.4332,-2.65229L34.4332,-2.65229L34.4332,9.04922L34.4332,9.04922L34.6557,14.3672"}],
"#L-Lash__face",[{p:'mpath',t:[0,100,200,300,400,500,2733,2833,2933,3400,3500,3600,4433,4533,4633,5900,6133,6367],v:['0%','8.333333%','16.666667%','16.666667%','25%','33.333333%','33.333333%','41.666667%','50%','50%','58.333333%','66.666667%','66.666667%','75%','83.333333%','83.333333%','91.666667%','100%'],e:[[0],[0],[0],[0],[0],[0],[0],[0],[0],[0],[0],[0],[0],[0],[0],[0],[0],[0]],mp:"M-34.332,-61.4551L-34.332,-55.4551L-34.332,-61.4551L-34.332,-61.4551L-34.332,-55.4551L-34.332,-61.4551L-34.332,-61.4551L-34.332,-55.4551L-34.332,-61.4551L-34.332,-61.4551L-34.332,-55.4551L-34.332,-61.4551L-34.332,-61.4551L-34.332,-55.4551L-34.332,-61.4551L-34.332,-61.4551L-34.332,-55.4551L-34.332,-61.4551"},{p:'d',t:[0,100,200,300,400,500,2733,2833,2933,3400,3500,3600,4433,4533,4633,5900,6133,6367],v:["path('M50.6202,68.6537C49.8846,65.5934,46.4629,62.376,42.4769,62.376C38.4893,62.376,35.0675,65.5934,34.332,68.6537')","path('M50.6202,62.9949C49.8846,66.0551,45.6235,67.2717,42.4768,67.2717C39.3286,67.2717,35.0675,66.0551,34.3319,62.9949')","path('M50.6202,68.6537C49.8846,65.5934,46.4629,62.376,42.4769,62.376C38.4893,62.376,35.0675,65.5934,34.332,68.6537')","path('M50.6202,68.6537C49.8846,65.5934,46.4629,62.376,42.4769,62.376C38.4893,62.376,35.0675,65.5934,34.332,68.6537')","path('M50.6202,62.9949C49.8846,66.0551,45.6235,67.2717,42.4768,67.2717C39.3286,67.2717,35.0675,66.0551,34.3319,62.9949')","path('M50.6202,68.6537C49.8846,65.5934,46.4629,62.376,42.4769,62.376C38.4893,62.376,35.0675,65.5934,34.332,68.6537')","path('M50.6202,68.6537C49.8846,65.5934,46.4629,62.376,42.4769,62.376C38.4893,62.376,35.0675,65.5934,34.332,68.6537')","path('M50.6202,62.9949C49.8846,66.0551,45.6235,67.2717,42.4768,67.2717C39.3286,67.2717,35.0675,66.0551,34.3319,62.9949')","path('M50.6202,68.6537C49.8846,65.5934,46.4629,62.376,42.4769,62.376C38.4893,62.376,35.0675,65.5934,34.332,68.6537')","path('M50.6202,68.6537C49.8846,65.5934,46.4629,62.376,42.4769,62.376C38.4893,62.376,35.0675,65.5934,34.332,68.6537')","path('M50.6202,62.9949C49.8846,66.0551,45.6235,67.2717,42.4768,67.2717C39.3286,67.2717,35.0675,66.0551,34.3319,62.9949')","path('M50.6202,68.6537C49.8846,65.5934,46.4629,62.376,42.4769,62.376C38.4893,62.376,35.0675,65.5934,34.332,68.6537')","path('M50.6202,68.6537C49.8846,65.5934,46.4629,62.376,42.4769,62.376C38.4893,62.376,35.0675,65.5934,34.332,68.6537')","path('M50.6202,62.9949C49.8846,66.0551,45.6235,67.2717,42.4768,67.2717C39.3286,67.2717,35.0675,66.0551,34.3319,62.9949')","path('M50.6202,68.6537C49.8846,65.5934,46.4629,62.376,42.4769,62.376C38.4893,62.376,35.0675,65.5934,34.332,68.6537')","path('M50.6202,68.6537C49.8846,65.5934,46.4629,62.376,42.4769,62.376C38.4893,62.376,35.0675,65.5934,34.332,68.6537')","path('M50.6202,62.9949C49.8846,66.0551,45.6235,67.2717,42.4768,67.2717C39.3286,67.2717,35.0675,66.0551,34.3319,62.9949')","path('M50.6202,68.6537C49.8846,65.5934,46.4629,62.376,42.4769,62.376C38.4893,62.376,35.0675,65.5934,34.332,68.6537')"],e:[[0],[0],[0],[0],[0],[0],[0],[0],[0],[0],[0],[0],[0],[0],[0],[0],[0],[0]]}],
"#L-Pupil__face",[{p:'mpath',t:[1000,1400,2000,2367,8833],v:['0%','43.134861%','43.134861%','86.269723%','100%'],e:[[1,0,0,0.58,1],[0],[1,0,0,0.58,1],[0],[0]],mp:"M-1376.38,-1335.35L-1379.27,-1335.35L-1379.27,-1335.35L-1376.38,-1335.35L-1376.38,-1334.43"},{p:'d',t:[0,100,200,300,400,500,2733,2833,2933,3400,3500,3600,4433,4533,4633,5900,6133,6367,8600,8833,10000,10267],v:["path('M2.065,0C2.065,1.14047,1.14047,2.065,0,2.065C-1.14047,2.065,-2.065,1.14047,-2.065,0C-2.065,-1.14047,-1.14047,-2.065,0,-2.065C1.14047,-2.065,2.065,-1.14047,2.065,0Z')","path('M2.065,1.65804C2.065,1.8828,1.14047,2.065,0,2.065C-1.14047,2.065,-2.065,1.8828,-2.065,1.65804C-2.065,1.43328,-1.14047,1.25108,0,1.25108C1.14047,1.25108,2.065,1.43328,2.065,1.65804Z')","path('M2.065,0C2.065,1.14047,1.14047,2.065,0,2.065C-1.14047,2.065,-2.065,1.14047,-2.065,0C-2.065,-1.14047,-1.14047,-2.065,0,-2.065C1.14047,-2.065,2.065,-1.14047,2.065,0Z')","path('M2.065,0C2.065,1.14047,1.14047,2.065,0,2.065C-1.14047,2.065,-2.065,1.14047,-2.065,0C-2.065,-1.14047,-1.14047,-2.065,0,-2.065C1.14047,-2.065,2.065,-1.14047,2.065,0Z')","path('M2.065,1.65804C2.065,1.8828,1.14047,2.065,0,2.065C-1.14047,2.065,-2.065,1.8828,-2.065,1.65804C-2.065,1.43328,-1.14047,1.25108,0,1.25108C1.14047,1.25108,2.065,1.43328,2.065,1.65804Z')","path('M2.065,0C2.065,1.14047,1.14047,2.065,0,2.065C-1.14047,2.065,-2.065,1.14047,-2.065,0C-2.065,-1.14047,-1.14047,-2.065,0,-2.065C1.14047,-2.065,2.065,-1.14047,2.065,0Z')","path('M2.065,0C2.065,1.14047,1.14047,2.065,0,2.065C-1.14047,2.065,-2.065,1.14047,-2.065,0C-2.065,-1.14047,-1.14047,-2.065,0,-2.065C1.14047,-2.065,2.065,-1.14047,2.065,0Z')","path('M2.065,1.65804C2.065,1.8828,1.14047,2.065,0,2.065C-1.14047,2.065,-2.065,1.8828,-2.065,1.65804C-2.065,1.43328,-1.14047,1.25108,0,1.25108C1.14047,1.25108,2.065,1.43328,2.065,1.65804Z')","path('M2.065,0C2.065,1.14047,1.14047,2.065,0,2.065C-1.14047,2.065,-2.065,1.14047,-2.065,0C-2.065,-1.14047,-1.14047,-2.065,0,-2.065C1.14047,-2.065,2.065,-1.14047,2.065,0Z')","path('M2.065,0C2.065,1.14047,1.14047,2.065,0,2.065C-1.14047,2.065,-2.065,1.14047,-2.065,0C-2.065,-1.14047,-1.14047,-2.065,0,-2.065C1.14047,-2.065,2.065,-1.14047,2.065,0Z')","path('M2.065,1.65804C2.065,1.8828,1.14047,2.065,0,2.065C-1.14047,2.065,-2.065,1.8828,-2.065,1.65804C-2.065,1.43328,-1.14047,1.25108,0,1.25108C1.14047,1.25108,2.065,1.43328,2.065,1.65804Z')","path('M2.065,0C2.065,1.14047,1.14047,2.065,0,2.065C-1.14047,2.065,-2.065,1.14047,-2.065,0C-2.065,-1.14047,-1.14047,-2.065,0,-2.065C1.14047,-2.065,2.065,-1.14047,2.065,0Z')","path('M2.065,0C2.065,1.14047,1.14047,2.065,0,2.065C-1.14047,2.065,-2.065,1.14047,-2.065,0C-2.065,-1.14047,-1.14047,-2.065,0,-2.065C1.14047,-2.065,2.065,-1.14047,2.065,0Z')","path('M2.065,1.65804C2.065,1.8828,1.14047,2.065,0,2.065C-1.14047,2.065,-2.065,1.8828,-2.065,1.65804C-2.065,1.43328,-1.14047,1.25108,0,1.25108C1.14047,1.25108,2.065,1.43328,2.065,1.65804Z')","path('M2.065,0C2.065,1.14047,1.14047,2.065,0,2.065C-1.14047,2.065,-2.065,1.14047,-2.065,0C-2.065,-1.14047,-1.14047,-2.065,0,-2.065C1.14047,-2.065,2.065,-1.14047,2.065,0Z')","path('M2.065,0C2.065,1.14047,1.14047,2.065,0,2.065C-1.14047,2.065,-2.065,1.14047,-2.065,0C-2.065,-1.14047,-1.14047,-2.065,0,-2.065C1.14047,-2.065,2.065,-1.14047,2.065,0Z')","path('M2.065,1.65804C2.065,1.8828,1.14047,2.065,0,2.065C-1.14047,2.065,-2.065,1.8828,-2.065,1.65804C-2.065,1.43328,-1.14047,1.25108,0,1.25108C1.14047,1.25108,2.065,1.43328,2.065,1.65804Z')","path('M2.065,0C2.065,1.14047,1.14047,2.065,0,2.065C-1.14047,2.065,-2.065,1.14047,-2.065,0C-2.065,-1.14047,-1.14047,-2.065,0,-2.065C1.14047,-2.065,2.065,-1.14047,2.065,0Z')","path('M2.065,0C2.065,1.14047,1.14047,2.065,0,2.065C-1.14047,2.065,-2.065,1.14047,-2.065,0C-2.065,-1.14047,-1.14047,-2.065,0,-2.065C1.14047,-2.065,2.065,-1.14047,2.065,0Z')","path('M2.065,-1.90732C2.065,-1.82024,1.14047,-1.74965,0,-1.74965C-1.14047,-1.74965,-2.065,-1.82024,-2.065,-1.90732C-2.065,-1.99441,-1.14047,-2.065,0,-2.065C1.14047,-2.065,2.065,-1.99441,2.065,-1.90732Z')","path('M2.065,-1.90732C2.065,-1.82024,1.14047,-1.74965,0,-1.74965C-1.14047,-1.74965,-2.065,-1.82024,-2.065,-1.90732C-2.065,-1.99441,-1.14047,-2.065,0,-2.065C1.14047,-2.065,2.065,-1.99441,2.065,-1.90732Z')","path('M2.065,0C2.065,1.14047,1.14047,2.065,0,2.065C-1.14047,2.065,-2.065,1.14047,-2.065,0C-2.065,-1.14047,-1.14047,-2.065,0,-2.065C1.14047,-2.065,2.065,-1.14047,2.065,0Z')"],e:[[0],[0],[0],[0],[0],[0],[0],[0],[0],[0],[0],[0],[0],[0],[0],[0],[0],[1,0,0,1,1],[0],[0],[0],[0]]}],
"#R-Lash__face",[{p:'mpath',t:[0,100,200,300,400,500,2733,2833,2933,3400,3500,3600,4433,4533,4633,5900,6133,6367],v:['0%','8.333333%','16.666667%','16.666667%','25%','33.333333%','33.333333%','41.666667%','50%','50%','58.333333%','66.666667%','66.666667%','75%','83.333333%','83.333333%','91.666667%','100%'],e:[[0],[0],[0],[0],[0],[0],[0],[0],[0],[0],[0],[0],[0],[0],[0],[0],[0],[0]],mp:"M-34.332,-61.4551L-34.332,-55.4551L-34.332,-61.4551L-34.332,-61.4551L-34.332,-55.4551L-34.332,-61.4551L-34.332,-61.4551L-34.332,-55.4551L-34.332,-61.4551L-34.332,-61.4551L-34.332,-55.4551L-34.332,-61.4551L-34.332,-61.4551L-34.332,-55.4551L-34.332,-61.4551L-34.332,-61.4551L-34.332,-55.4551L-34.332,-61.4551"},{p:'d',t:[0,100,200,300,400,500,2733,2833,2933,3400,3500,3600,4433,4533,4633,5900,6133,6367],v:["path('M100.113,68.6537C99.3776,65.5934,95.9559,62.376,91.9699,62.376C87.9823,62.376,84.5605,65.5934,83.825,68.6537')","path('M100.113,62.9949C99.3776,66.0551,95.1165,67.2717,91.9698,67.2717C88.8216,67.2717,84.5605,66.0551,83.8249,62.9949')","path('M100.113,68.6537C99.3776,65.5934,95.9559,62.376,91.9699,62.376C87.9823,62.376,84.5605,65.5934,83.825,68.6537')","path('M100.113,68.6537C99.3776,65.5934,95.9559,62.376,91.9699,62.376C87.9823,62.376,84.5605,65.5934,83.825,68.6537')","path('M100.113,62.9949C99.3776,66.0551,95.1165,67.2717,91.9698,67.2717C88.8216,67.2717,84.5605,66.0551,83.8249,62.9949')","path('M100.113,68.6537C99.3776,65.5934,95.9559,62.376,91.9699,62.376C87.9823,62.376,84.5605,65.5934,83.825,68.6537')","path('M100.113,68.6537C99.3776,65.5934,95.9559,62.376,91.9699,62.376C87.9823,62.376,84.5605,65.5934,83.825,68.6537')","path('M100.113,62.9949C99.3776,66.0551,95.1165,67.2717,91.9698,67.2717C88.8216,67.2717,84.5605,66.0551,83.8249,62.9949')","path('M100.113,68.6537C99.3776,65.5934,95.9559,62.376,91.9699,62.376C87.9823,62.376,84.5605,65.5934,83.825,68.6537')","path('M100.113,68.6537C99.3776,65.5934,95.9559,62.376,91.9699,62.376C87.9823,62.376,84.5605,65.5934,83.825,68.6537')","path('M100.113,62.9949C99.3776,66.0551,95.1165,67.2717,91.9698,67.2717C88.8216,67.2717,84.5605,66.0551,83.8249,62.9949')","path('M100.113,68.6537C99.3776,65.5934,95.9559,62.376,91.9699,62.376C87.9823,62.376,84.5605,65.5934,83.825,68.6537')","path('M100.113,68.6537C99.3776,65.5934,95.9559,62.376,91.9699,62.376C87.9823,62.376,84.5605,65.5934,83.825,68.6537')","path('M100.113,62.9949C99.3776,66.0551,95.1165,67.2717,91.9698,67.2717C88.8216,67.2717,84.5605,66.0551,83.8249,62.9949')","path('M100.113,68.6537C99.3776,65.5934,95.9559,62.376,91.9699,62.376C87.9823,62.376,84.5605,65.5934,83.825,68.6537')","path('M100.113,68.6537C99.3776,65.5934,95.9559,62.376,91.9699,62.376C87.9823,62.376,84.5605,65.5934,83.825,68.6537')","path('M100.113,62.9949C99.3776,66.0551,95.1165,67.2717,91.9698,67.2717C88.8216,67.2717,84.5605,66.0551,83.8249,62.9949')","path('M100.113,68.6537C99.3776,65.5934,95.9559,62.376,91.9699,62.376C87.9823,62.376,84.5605,65.5934,83.825,68.6537')"],e:[[0],[0],[0],[0],[0],[0],[0],[0],[0],[0],[0],[0],[0],[0],[0],[0],[0],[0]]}],
"#R-Pupil__face",[{p:'mpath',t:[1000,1400,2000,2367,8833],v:['0%','43.199402%','43.199402%','86.249179%','100%'],e:[[1,0,0,0.58,1],[0],[1,0,0,0.58,1],[0],[0]],mp:"M-1327.12,-1335.35L-1330.01,-1335.35L-1330.01,-1335.35L-1327.13,-1335.35L-1327.13,-1334.43"},{p:'d',t:[0,100,200,300,400,500,2733,2833,2933,3400,3500,3600,4433,4533,4633,5900,6133,6367,8600,8833,10000,10267],v:["path('M2.065,0C2.065,1.14047,1.14047,2.065,0,2.065C-1.14047,2.065,-2.065,1.14047,-2.065,0C-2.065,-1.14047,-1.14047,-2.065,0,-2.065C1.14047,-2.065,2.065,-1.14047,2.065,0Z')","path('M2.065,1.65804C2.065,1.8828,1.14047,2.065,0,2.065C-1.14047,2.065,-2.065,1.8828,-2.065,1.65804C-2.065,1.43328,-1.14047,1.25108,0,1.25108C1.14047,1.25108,2.065,1.43328,2.065,1.65804Z')","path('M2.065,0C2.065,1.14047,1.14047,2.065,0,2.065C-1.14047,2.065,-2.065,1.14047,-2.065,0C-2.065,-1.14047,-1.14047,-2.065,0,-2.065C1.14047,-2.065,2.065,-1.14047,2.065,0Z')","path('M2.065,0C2.065,1.14047,1.14047,2.065,0,2.065C-1.14047,2.065,-2.065,1.14047,-2.065,0C-2.065,-1.14047,-1.14047,-2.065,0,-2.065C1.14047,-2.065,2.065,-1.14047,2.065,0Z')","path('M2.065,1.65804C2.065,1.8828,1.14047,2.065,0,2.065C-1.14047,2.065,-2.065,1.8828,-2.065,1.65804C-2.065,1.43328,-1.14047,1.25108,0,1.25108C1.14047,1.25108,2.065,1.43328,2.065,1.65804Z')","path('M2.065,0C2.065,1.14047,1.14047,2.065,0,2.065C-1.14047,2.065,-2.065,1.14047,-2.065,0C-2.065,-1.14047,-1.14047,-2.065,0,-2.065C1.14047,-2.065,2.065,-1.14047,2.065,0Z')","path('M2.065,0C2.065,1.14047,1.14047,2.065,0,2.065C-1.14047,2.065,-2.065,1.14047,-2.065,0C-2.065,-1.14047,-1.14047,-2.065,0,-2.065C1.14047,-2.065,2.065,-1.14047,2.065,0Z')","path('M2.065,1.65804C2.065,1.8828,1.14047,2.065,0,2.065C-1.14047,2.065,-2.065,1.8828,-2.065,1.65804C-2.065,1.43328,-1.14047,1.25108,0,1.25108C1.14047,1.25108,2.065,1.43328,2.065,1.65804Z')","path('M2.065,0C2.065,1.14047,1.14047,2.065,0,2.065C-1.14047,2.065,-2.065,1.14047,-2.065,0C-2.065,-1.14047,-1.14047,-2.065,0,-2.065C1.14047,-2.065,2.065,-1.14047,2.065,0Z')","path('M2.065,0C2.065,1.14047,1.14047,2.065,0,2.065C-1.14047,2.065,-2.065,1.14047,-2.065,0C-2.065,-1.14047,-1.14047,-2.065,0,-2.065C1.14047,-2.065,2.065,-1.14047,2.065,0Z')","path('M2.065,1.65804C2.065,1.8828,1.14047,2.065,0,2.065C-1.14047,2.065,-2.065,1.8828,-2.065,1.65804C-2.065,1.43328,-1.14047,1.25108,0,1.25108C1.14047,1.25108,2.065,1.43328,2.065,1.65804Z')","path('M2.065,0C2.065,1.14047,1.14047,2.065,0,2.065C-1.14047,2.065,-2.065,1.14047,-2.065,0C-2.065,-1.14047,-1.14047,-2.065,0,-2.065C1.14047,-2.065,2.065,-1.14047,2.065,0Z')","path('M2.065,0C2.065,1.14047,1.14047,2.065,0,2.065C-1.14047,2.065,-2.065,1.14047,-2.065,0C-2.065,-1.14047,-1.14047,-2.065,0,-2.065C1.14047,-2.065,2.065,-1.14047,2.065,0Z')","path('M2.065,1.65804C2.065,1.8828,1.14047,2.065,0,2.065C-1.14047,2.065,-2.065,1.8828,-2.065,1.65804C-2.065,1.43328,-1.14047,1.25108,0,1.25108C1.14047,1.25108,2.065,1.43328,2.065,1.65804Z')","path('M2.065,0C2.065,1.14047,1.14047,2.065,0,2.065C-1.14047,2.065,-2.065,1.14047,-2.065,0C-2.065,-1.14047,-1.14047,-2.065,0,-2.065C1.14047,-2.065,2.065,-1.14047,2.065,0Z')","path('M2.065,0C2.065,1.14047,1.14047,2.065,0,2.065C-1.14047,2.065,-2.065,1.14047,-2.065,0C-2.065,-1.14047,-1.14047,-2.065,0,-2.065C1.14047,-2.065,2.065,-1.14047,2.065,0Z')","path('M2.065,1.65804C2.065,1.8828,1.14047,2.065,0,2.065C-1.14047,2.065,-2.065,1.8828,-2.065,1.65804C-2.065,1.43328,-1.14047,1.25108,0,1.25108C1.14047,1.25108,2.065,1.43328,2.065,1.65804Z')","path('M2.065,0C2.065,1.14047,1.14047,2.065,0,2.065C-1.14047,2.065,-2.065,1.14047,-2.065,0C-2.065,-1.14047,-1.14047,-2.065,0,-2.065C1.14047,-2.065,2.065,-1.14047,2.065,0Z')","path('M2.065,0C2.065,1.14047,1.14047,2.065,0,2.065C-1.14047,2.065,-2.065,1.14047,-2.065,0C-2.065,-1.14047,-1.14047,-2.065,0,-2.065C1.14047,-2.065,2.065,-1.14047,2.065,0Z')","path('M2.065,-1.90732C2.065,-1.82024,1.14047,-1.74965,0,-1.74965C-1.14047,-1.74965,-2.065,-1.82024,-2.065,-1.90732C-2.065,-1.99441,-1.14047,-2.065,0,-2.065C1.14047,-2.065,2.065,-1.99441,2.065,-1.90732Z')","path('M2.065,-1.90732C2.065,-1.82024,1.14047,-1.74965,0,-1.74965C-1.14047,-1.74965,-2.065,-1.82024,-2.065,-1.90732C-2.065,-1.99441,-1.14047,-2.065,0,-2.065C1.14047,-2.065,2.065,-1.99441,2.065,-1.90732Z')","path('M2.065,0C2.065,1.14047,1.14047,2.065,0,2.065C-1.14047,2.065,-2.065,1.14047,-2.065,0C-2.065,-1.14047,-1.14047,-2.065,0,-2.065C1.14047,-2.065,2.065,-1.14047,2.065,0Z')"],e:[[0],[0],[0],[0],[0],[0],[0],[0],[0],[0],[0],[0],[0],[0],[0],[0],[0],[1,0,0,1,1],[0],[0],[0],[0]]}],
"#L-Brow__face",[{p:'d',t:[2600,2800,5600,5700,7000,7100,7200,7600,8500,8833,10000,10267,11533,12000],v:["path('M54.0528,53.1146C54.0528,53.1146,54.0528,53.9236,54.0528,53.9236C54.0528,55.4426,53.4498,56.8986,52.3758,57.9726C51.3018,59.0466,49.8458,59.6496,48.3268,59.6496C48.3268,59.6496,32.5668,59.6496,32.5668,59.6496')","path('M51.9042,53.289C51.1737,53.0554,50.4381,52.8409,49.6982,52.6457C48.8262,52.4156,47.9481,52.2123,47.0655,52.0357C46.0355,51.8297,44.9992,51.6601,43.9587,51.5272C39.7357,50.9877,35.4439,51.0512,31.2247,51.7257')","path('M51.9042,53.289C51.1737,53.0554,50.4381,52.8409,49.6982,52.6457C48.8262,52.4156,47.9481,52.2123,47.0655,52.0357C46.0355,51.8297,44.9992,51.6601,43.9587,51.5272C39.7357,50.9877,35.4439,51.0512,31.2247,51.7257')","path('M51.481,45.563C50.825,45.4581,50.1672,45.368,49.5082,45.2927C48.7863,45.2101,48.0628,45.1453,47.3387,45.098C46.6253,45.0515,45.9112,45.0221,45.1971,45.0098C40.3317,44.926,35.4628,45.6354,30.8015,47.1262')","path('M51.481,45.563C50.825,45.4581,50.1672,45.368,49.5082,45.2927C48.7863,45.2101,48.0628,45.1453,47.3387,45.098C46.6253,45.0515,45.9112,45.0221,45.1971,45.0098C40.3317,44.926,35.4628,45.6354,30.8015,47.1262')","path('M47.5314,46.2254C46.8042,46.2372,46.078,46.2668,45.3535,46.3141C44.7293,46.3548,44.1064,46.4086,43.4851,46.4754C42.898,46.5385,42.3125,46.6133,41.7288,46.6995C36.7535,47.4346,31.9143,49.0061,27.4388,51.3609')","path('M47.5314,46.2254C46.8042,46.2372,46.078,46.2668,45.3535,46.3141C44.7293,46.3548,44.1064,46.4086,43.4851,46.4754C42.898,46.5385,42.3125,46.6133,41.7288,46.6995C36.7535,47.4346,31.9143,49.0061,27.4388,51.3609')","path('M47.5314,33.7795C46.5119,33.7961,45.4945,33.8476,44.4809,33.9337C43.6105,34.0077,42.7429,34.107,41.8793,34.2316C40.7681,34.3919,39.6635,34.594,38.5682,34.8371C34.7072,35.6942,30.9604,37.0621,27.4389,38.915')","path('M47.5314,33.7795C46.5119,33.7961,45.4945,33.8476,44.4809,33.9337C43.6105,34.0077,42.7429,34.107,41.8793,34.2316C40.7681,34.3919,39.6635,34.594,38.5682,34.8371C34.7072,35.6942,30.9604,37.0621,27.4389,38.915')","path('M47.5314,27.7795C46.6574,27.7937,45.7848,27.8336,44.9149,27.899C44.2329,27.9502,43.5525,28.0171,42.8743,28.0995C42.2344,28.1772,41.5964,28.2687,40.9609,28.3739C36.2559,29.1527,31.6838,30.6815,27.4389,32.915')","path('M47.5314,27.7795C46.6574,27.7937,45.7848,27.8336,44.9149,27.899C44.2329,27.9502,43.5525,28.0171,42.8743,28.0995C42.2344,28.1772,41.5964,28.2687,40.9609,28.3739C36.2559,29.1527,31.6838,30.6815,27.4389,32.915')","path('M47.5314,46.2254C46.8042,46.2372,46.078,46.2668,45.3535,46.3141C44.7293,46.3548,44.1064,46.4086,43.4851,46.4754C42.898,46.5385,42.3125,46.6133,41.7288,46.6995C36.7535,47.4346,31.9143,49.0061,27.4388,51.3609')","path('M47.5314,46.2254C46.8042,46.2372,46.078,46.2668,45.3535,46.3141C44.7293,46.3548,44.1064,46.4086,43.4851,46.4754C42.898,46.5385,42.3125,46.6133,41.7288,46.6995C36.7535,47.4346,31.9143,49.0061,27.4388,51.3609')","path('M54.0528,53.1146C54.0528,53.1146,54.0528,53.9236,54.0528,53.9236C54.0528,55.4426,53.4498,56.8986,52.3758,57.9726C51.3018,59.0466,49.8458,59.6496,48.3268,59.6496C48.3268,59.6496,32.5668,59.6496,32.5668,59.6496')"],e:[[1,0,0,0.58,1],[0],[1,0,0,0.58,1],[0],[1,0,0,0.58,1],[1,0,0,0.58,1],[1,0,0,0.58,1],[1,0,0,0.58,1],[1,0,0,0.58,1],[0],[0],[1,0,0,0.58,1],[0],[0]]}],
"#R-Brow__face",[{p:'d',t:[2600,2800,5600,5700,7000,7100,7200,7600,8500,8833,10000,10267,11533,12000],v:["path('M78.8129,53.1146C78.8129,53.1146,78.8129,53.9236,78.8129,53.9236C78.8129,55.4426,79.4159,56.8986,80.4899,57.9726C81.5639,59.0466,83.0199,59.6496,84.5389,59.6496C84.5389,59.6496,101.88,59.6496,101.88,59.6496')","path('M82.5391,53.289C83.38,53.02,84.2277,52.7765,85.081,52.5585C85.9214,52.3438,86.7672,52.1537,87.6171,51.9886C88.5672,51.8039,89.5224,51.6503,90.4813,51.5277C94.7053,50.9877,98.9984,51.051,103.219,51.7257')","path('M82.5391,53.289C83.38,53.02,84.2277,52.7765,85.081,52.5585C85.9214,52.3438,86.7672,52.1537,87.6171,51.9886C88.5672,51.8039,89.5224,51.6503,90.4813,51.5277C94.7053,50.9877,98.9984,51.051,103.219,51.7257')","path('M77.7039,43.3903C78.2945,43.0426,78.8925,42.7089,79.4975,42.3893C80.2102,42.0128,80.9326,41.6559,81.6636,41.3189C82.3957,40.9814,83.1365,40.664,83.8852,40.3668C88.2293,38.6422,92.8362,37.6002,97.5278,37.2996')","path('M77.7039,43.3903C78.2945,43.0426,78.8925,42.7089,79.4975,42.3893C80.2102,42.0128,80.9326,41.6559,81.6636,41.3189C82.3957,40.9814,83.1365,40.664,83.8852,40.3668C88.2293,38.6422,92.8362,37.6002,97.5278,37.2996')","path('M86.912,46.2254C87.5133,46.2352,88.114,46.2571,88.7135,46.2912C89.4208,46.3313,90.1266,46.3883,90.8303,46.4619C91.5573,46.5379,92.282,46.6318,93.0038,46.7432C97.8771,47.4958,102.615,49.0518,107.005,51.3609')","path('M86.912,46.2254C87.5133,46.2352,88.114,46.2571,88.7135,46.2912C89.4208,46.3313,90.1266,46.3883,90.8303,46.4619C91.5573,46.5379,92.282,46.6318,93.0038,46.7432C97.8771,47.4958,102.615,49.0518,107.005,51.3609')","path('M86.9121,33.7795C87.94,33.7962,88.9658,33.8485,89.9877,33.9359C91.0551,34.0272,92.1182,34.1567,93.1749,34.3241C94.205,34.4872,95.229,34.6863,96.2448,34.9208C99.9757,35.782,103.596,37.1213,107.005,38.915')","path('M86.9121,33.7795C87.94,33.7962,88.9658,33.8485,89.9877,33.9359C91.0551,34.0272,92.1182,34.1567,93.1749,34.3241C94.205,34.4872,95.229,34.6863,96.2448,34.9208C99.9757,35.782,103.596,37.1213,107.005,38.915')","path('M86.9121,27.7795C87.4225,27.7878,87.9325,27.8049,88.4417,27.8307C89.2435,27.8713,90.0435,27.9335,90.8408,28.0171C91.8434,28.1222,92.8416,28.2611,93.8338,28.4334C98.4154,29.2292,102.866,30.7371,107.005,32.915')","path('M86.9121,27.7795C87.4225,27.7878,87.9325,27.8049,88.4417,27.8307C89.2435,27.8713,90.0435,27.9335,90.8408,28.0171C91.8434,28.1222,92.8416,28.2611,93.8338,28.4334C98.4154,29.2292,102.866,30.7371,107.005,32.915')","path('M86.912,46.2254C87.5133,46.2352,88.114,46.2571,88.7135,46.2912C89.4208,46.3313,90.1266,46.3883,90.8303,46.4619C91.5573,46.5379,92.282,46.6318,93.0038,46.7432C97.8771,47.4958,102.615,49.0518,107.005,51.3609')","path('M86.912,46.2254C87.5133,46.2352,88.114,46.2571,88.7135,46.2912C89.4208,46.3313,90.1266,46.3883,90.8303,46.4619C91.5573,46.5379,92.282,46.6318,93.0038,46.7432C97.8771,47.4958,102.615,49.0518,107.005,51.3609')","path('M78.8129,53.1146C78.8129,53.1146,78.8129,53.9236,78.8129,53.9236C78.8129,55.4426,79.4159,56.8986,80.4899,57.9726C81.5639,59.0466,83.0199,59.6496,84.5389,59.6496C84.5389,59.6496,101.88,59.6496,101.88,59.6496')"],e:[[1,0,0,0.58,1],[0],[1,0,0,0.58,1],[0],[1,0,0,0.58,1],[1,0,0,0.58,1],[1,0,0,0.58,1],[1,0,0,0.58,1],[1,0,0,0.58,1],[0],[0],[1,0,0,0.58,1],[0],[0]]}],
{autoremove:false}).range(0,12000).loop(true);
if(document.location.search.substr(1).split('&').indexOf('global=paused')>=0)ks.globalPause()})(KeyshapeJS);
]]></script>
</svg>
