<?xml version="1.0" encoding="UTF-8" standalone="no"?>
<!-- Created with Keyshape -->
<svg xmlns="http://www.w3.org/2000/svg" xmlns:xlink="http://www.w3.org/1999/xlink" fill-rule="evenodd" clip-rule="evenodd" stroke-linecap="round" stroke-linejoin="round" stroke-miterlimit="1.5" viewBox="0 0 134 134" style="background: rgba(255,213,135,0.00);">
    <defs>
        <radialGradient id="Gradient-0" cx="0" cy="0" r="15.212" fx="0" fy="0" gradientUnits="userSpaceOnUse">
            <stop offset="0" stop-color="#ffd587"/>
            <stop offset="0.725" stop-color="#ffd587"/>
            <stop offset="1" stop-color="#ffd587" stop-opacity="0"/>
        </radialGradient>
        <radialGradient id="Gradient-1" cx="-34.8553" cy="-34.0395" r="1" fx="-34.8553" fy="-34.0395" gradientUnits="userSpaceOnUse" gradientTransform="matrix(15.2123 0 0 15.2123 530.23 517.819)">
            <stop offset="0" stop-color="#ffffff" stop-opacity="0.5"/>
            <stop offset="0.539504" stop-color="#ffffff" stop-opacity="0.15"/>
            <stop offset="0.99082" stop-color="#ffffff" stop-opacity="0"/>
        </radialGradient>
        <radialGradient id="Gradient-2" cx="0.00071981" cy="-8.585e-05" r="7.6437" fx="0.00071981" fy="-8.585e-05" gradientUnits="userSpaceOnUse">
            <stop offset="0" stop-color="#ffffff" stop-opacity="0.5"/>
            <stop offset="0.539504" stop-color="#ffffff" stop-opacity="0.15"/>
            <stop offset="1" stop-color="#ffffff" stop-opacity="0"/>
        </radialGradient>
        <clipPath id="ClipPath-1">
            <path id="Mouth-Fill-3" d="M545.789,496.942C552.769,496.942,555.711,495.055,556.549,495.012C557.387,494.969,557.623,495.187,557.881,495.692C558.139,496.197,557.817,496.898,557.086,497.227C556.355,497.556,551.695,499.332,545.789,499.332C539.346,499.332,535.67,497.591,534.556,497.293C534.033,497.079,533.745,496.541,533.805,495.977C533.865,495.413,533.976,495.276,534.556,494.947C535.136,494.618,539.077,496.942,545.789,496.942Z" fill="#1b1a65" fill-rule="evenodd" stroke="none" fill-opacity="1" opacity="1" clip-rule="evenodd" stroke-linecap="round" stroke-linejoin="round" stroke-miterlimit="1.5" transform="translate(66.4042,97.1084) scale(1.8624,1.82405) translate(-545.638,-497.637)"/>
        </clipPath>
    </defs>
    <path id="Ref" d="M67.22,0.5C75.9815,0.502624,84.6568,2.23011,92.7511,5.58391C100.845,8.93771,108.2,13.8522,114.396,20.0471C120.592,26.242,125.507,33.596,128.862,41.6897C132.217,49.7834,133.946,58.4585,133.95,67.22C133.946,75.9815,132.217,84.6566,128.862,92.7503C125.507,100.844,120.592,108.198,114.396,114.393C108.2,120.588,100.845,125.502,92.7511,128.856C84.6568,132.21,75.9815,133.937,67.22,133.94C58.4593,133.936,49.7851,132.208,41.692,128.853C33.599,125.499,26.2454,120.584,20.0506,114.389C13.8559,108.195,8.94116,100.841,5.58677,92.748C2.23239,84.6549,0.503937,75.9807,0.5,67.22C0.503937,58.4593,2.23239,49.7851,5.58677,41.692C8.94116,33.599,13.8559,26.2454,20.0506,20.0506C26.2454,13.8559,33.599,8.94116,41.692,5.58677C49.7851,2.23239,58.4593,0.503937,67.22,0.5ZM67.22,1.5C75.8498,1.50394,84.3945,3.20645,92.3668,6.51046C100.339,9.81447,107.583,14.6554,113.686,20.7571C119.788,26.8589,124.63,34.1021,127.936,42.0739C131.241,50.0457,132.945,58.5902,132.95,67.22C132.945,75.8498,131.241,84.3943,127.936,92.3661C124.63,100.338,119.788,107.581,113.686,113.683C107.583,119.785,100.339,124.626,92.3668,127.93C84.3945,131.234,75.8498,132.936,67.22,132.94C58.5906,132.936,50.0464,131.233,42.0747,127.929C34.103,124.625,26.8596,119.784,20.7577,113.682C14.6558,107.58,9.81479,100.337,6.51065,92.3653C3.20652,84.3936,1.50394,75.8494,1.5,67.22C1.50394,58.5906,3.20652,50.0464,6.51065,42.0747C9.81479,34.103,14.6558,26.8596,20.7577,20.7577C26.8596,14.6558,34.103,9.81479,42.0747,6.51065C50.0464,3.20652,58.5906,1.50394,67.22,1.5Z" display="none"/>
    <ellipse id="Glow-yellow" fill="url(#Gradient-0)" rx="15.212" ry="15.212" fill-rule="evenodd" clip-rule="evenodd" stroke-linecap="round" stroke-linejoin="round" stroke-miterlimit="1.5" transform="translate(-2258.4,-2203.96) scale(4.38606,4.38606) translate(530.23,517.819)"/>
    <ellipse id="Glow-1" fill="url(#Gradient-1)" rx="15.212" ry="15.212" fill-rule="evenodd" clip-rule="evenodd" stroke-linecap="round" stroke-linejoin="round" stroke-miterlimit="1.5" opacity="1" transform="translate(-2258.62,-2204.19) scale(4.38606,4.38606) translate(530.23,517.819)"/>
    <ellipse id="Glow-2" fill="url(#Gradient-2)" rx="7.64379" ry="7.64379" fill-rule="evenodd" clip-rule="evenodd" stroke-linecap="round" stroke-linejoin="round" stroke-miterlimit="1.5" opacity="0" transform="translate(-2258.62,-2231.1) scale(4.38606,4.38606) translate(530.23,517.819)"/>
    <g id="Brows" opacity="1" transform="translate(0,0) translate(0,0) translate(0,0)">
        <path id="_a0" d="M27.44,51.36C28.9846,50.5475,30.5754,49.8261,32.2043,49.1994C33.8331,48.5727,35.4972,48.0417,37.1881,47.6094C38.8789,47.177,40.5936,46.8438,42.3234,46.6117C44.0531,46.3795,45.795,46.2487,47.54,46.22M107,51.36C105.456,50.5479,103.866,49.8267,102.238,49.2002C100.61,48.5737,98.9468,48.0429,97.2568,47.6105C95.5668,47.1781,93.853,46.8449,92.1241,46.6126C90.3952,46.3802,88.6542,46.2491,86.91,46.22" fill="none" stroke="#f9bc79" stroke-width="4" transform="translate(67.22,48.79) translate(-67.22,-48.79)"/>
    </g>
    <path id="Nose" d="M60.6,76C60.3304,75.9987,60.0632,76.0508,59.8139,76.1533C59.5646,76.2559,59.3381,76.4069,59.1475,76.5975C58.9569,76.7881,58.8059,77.0146,58.7033,77.2639C58.6008,77.5132,58.5487,77.7804,58.55,78.05C58.55,81.15,62.44,83.66,67.22,83.66C72.01,83.66,75.89,81.15,75.89,78.05C75.89,76.92,74.98,76,73.85,76L60.6,76Z" fill="#ffbdaa" transform="translate(0,0) translate(0,0) translate(0,0)"/>
    <g id="Eyes-2" fill-rule="evenodd" clip-rule="evenodd" stroke-linecap="round" stroke-linejoin="round" stroke-miterlimit="1.5" transform="translate(67,61.7645) translate(0,0) translate(-32.8905,-6.94719)">
        <path id="L-Lash-2" d="M50.6202,68.6537C49.8846,65.5934,46.4629,62.376,42.4769,62.376C38.4893,62.376,35.0675,65.5934,34.332,68.6537" fill="none" stroke="#1b1a65" stroke-width="4.49526" transform="translate(-34.332,-61.4551) translate(0,0) translate(0,0)"/>
        <path id="L-Pupil-2" fill="#1b1a65" d="M2.065,0C2.065,1.14047,1.14047,2.065,0,2.065C-1.14047,2.065,-2.065,1.14047,-2.065,0C-2.065,-1.14047,-1.14047,-2.065,0,-2.065C1.14047,-2.065,2.065,-1.14047,2.065,0Z" transform="translate(-1376.38,-1334.43) scale(2.91848,2.91848) translate(474.378,459.615)"/>
        <path id="R-Lash-2" d="M100.113,68.6537C99.3776,65.5934,95.9559,62.376,91.9699,62.376C87.9823,62.376,84.5605,65.5934,83.825,68.6537" fill="none" stroke="#1b1a65" stroke-width="4.49526" transform="translate(-34.332,-61.4551) translate(0,0) translate(0,0)"/>
        <path id="R-Pupil-2" fill="#1b1a65" d="M2.065,0C2.065,1.14047,1.14047,2.065,0,2.065C-1.14047,2.065,-2.065,1.14047,-2.065,0C-2.065,-1.14047,-1.14047,-2.065,0,-2.065C1.14047,-2.065,2.065,-1.14047,2.065,0Z" transform="translate(-1327.13,-1334.43) scale(2.91848,2.91848) translate(474.378,459.615)"/>
    </g>
    <g id="All-mouth" fill-rule="evenodd" clip-rule="evenodd" stroke-linecap="round" stroke-linejoin="round" stroke-miterlimit="1.5" transform="translate(67.0701,89.1552) translate(0,0) translate(-25.876,-13.1552)">
        <path id="Mouth-Fill" d="M545.789,496.942C552.769,496.942,555.711,495.055,556.549,495.012C557.387,494.969,557.623,495.187,557.881,495.692C558.139,496.197,557.817,496.898,557.086,497.227C556.355,497.556,551.695,499.332,545.789,499.332C539.346,499.332,535.67,497.591,534.556,497.293C534.033,497.079,533.745,496.541,533.805,495.977C533.865,495.413,533.976,495.276,534.556,494.947C535.136,494.618,539.077,496.942,545.789,496.942Z" fill="#1b1a65" fill-rule="evenodd" stroke="none" fill-opacity="1" opacity="1" transform="translate(25.3494,19.7098) scale(1.8624,1.82405) translate(-545.638,-497.637)"/>
        <path id="Tongue-2" d="M61.2601,101.337C61.4421,100.192,63.7881,99.2861,66.6511,99.2861C69.4691,99.2861,71.7861,100.164,72.0311,101.284C70.4331,101.51,68.5741,101.653,66.4371,101.653C64.4651,101.653,62.7461,101.531,61.2601,101.337Z" fill="#cb4868" fill-rule="evenodd" clip-rule="evenodd" stroke-linecap="round" stroke-linejoin="round" stroke-miterlimit="1.5" opacity="0" clip-path="url(#ClipPath-1)" transform="translate(-41.0548,-77.3986)"/>
    </g>
    <script xlink:href="keyshapejs-1.1.0.min.js"/>
    <script><![CDATA[if(KeyshapeJS.version.indexOf('1.')!=0)throw Error('Expected KeyshapeJS v1.*.*');window.ks=document.ks=KeyshapeJS;(function(ks){
ks.animate("#Glow-1",[{p:'opacity',t:[333,867,4333,5067],v:[1,0,0,1],e:[[1,0,0,0.58,1],[0],[0],[0]]}],
"#Glow-2",[{p:'opacity',t:[333,867,4333,5067],v:[0,1,1,0],e:[[1,0,0,0.58,1],[0],[0],[0]]}],
"#Brows",[{p:'mpath',t:[333,867,4333,5067],v:['0%','49.999933%','49.999933%','100%'],e:[[1,0,0,0.58,1],[0],[0],[0]],mp:"M0,0L0,-17.114L0,-17.114L0,0"}],
"#_a0",[{p:'scaleX',t:[333,867,4333,5067],v:[1,0.9,0.9,1],e:[[1,0,0,0.58,1],[0],[0],[0]]},{p:'scaleY',t:[333,867,4333,5067],v:[1,0.6,0.6,1],e:[[1,0,0,0.58,1],[0],[0],[0]]}],
"#Nose",[{p:'mpath',t:[333,867,4333,5067],v:['0%','50.000021%','50.000021%','100%'],e:[[1,0,0,0.58,1],[0],[0],[0]],mp:"M0,0L0,-35.5666L0,-35.5666L0,0"}],
"#Eyes-2",[{p:'mpath',t:[333,867,4333,5067],v:['0%','49.99996%','49.99996%','100%'],e:[[1,0,0,0.58,1],[0],[0],[0]],mp:"M67,61.7645L67,37.8618L67,37.8618L67,61.7645"},{p:'scaleX',t:[333,867,4333,5067],v:[1,1,1,1],e:[[1,0,0,0.58,1],[0],[0],[0]]},{p:'scaleY',t:[333,867,4333,5067],v:[1,0.6,0.6,1],e:[[1,0,0,0.58,1],[0],[0],[0]]}],
"#L-Lash-2",[{p:'mpath',t:[2067,2167,2267,2733,2833,2933],v:['0%','25%','50%','50%','75%','100%'],e:[[0],[0],[0],[0],[0],[0]],mp:"M-34.332,-61.4551L-34.332,-55.4551L-34.332,-61.4551L-34.332,-61.4551L-34.332,-55.4551L-34.332,-61.4551"},{p:'d',t:[2067,2167,2267,2733,2833,2933],v:["path('M50.6202,68.6537C49.8846,65.5934,46.4629,62.376,42.4769,62.376C38.4893,62.376,35.0675,65.5934,34.332,68.6537')","path('M50.6202,62.9949C49.8846,66.0551,45.6235,67.2717,42.4768,67.2717C39.3286,67.2717,35.0675,66.0551,34.3319,62.9949')","path('M50.6202,68.6537C49.8846,65.5934,46.4629,62.376,42.4769,62.376C38.4893,62.376,35.0675,65.5934,34.332,68.6537')","path('M50.6202,68.6537C49.8846,65.5934,46.4629,62.376,42.4769,62.376C38.4893,62.376,35.0675,65.5934,34.332,68.6537')","path('M50.6202,62.9949C49.8846,66.0551,45.6235,67.2717,42.4768,67.2717C39.3286,67.2717,35.0675,66.0551,34.3319,62.9949')","path('M50.6202,68.6537C49.8846,65.5934,46.4629,62.376,42.4769,62.376C38.4893,62.376,35.0675,65.5934,34.332,68.6537')"],e:[[0],[0],[0],[0],[0],[0]]}],
"#L-Pupil-2",[{p:'d',t:[2067,2167,2267,2733,2833,2933],v:["path('M2.065,0C2.065,1.14047,1.14047,2.065,0,2.065C-1.14047,2.065,-2.065,1.14047,-2.065,0C-2.065,-1.14047,-1.14047,-2.065,0,-2.065C1.14047,-2.065,2.065,-1.14047,2.065,0Z')","path('M2.065,1.65804C2.065,1.8828,1.14047,2.065,0,2.065C-1.14047,2.065,-2.065,1.8828,-2.065,1.65804C-2.065,1.43328,-1.14047,1.25108,0,1.25108C1.14047,1.25108,2.065,1.43328,2.065,1.65804Z')","path('M2.065,0C2.065,1.14047,1.14047,2.065,0,2.065C-1.14047,2.065,-2.065,1.14047,-2.065,0C-2.065,-1.14047,-1.14047,-2.065,0,-2.065C1.14047,-2.065,2.065,-1.14047,2.065,0Z')","path('M2.065,0C2.065,1.14047,1.14047,2.065,0,2.065C-1.14047,2.065,-2.065,1.14047,-2.065,0C-2.065,-1.14047,-1.14047,-2.065,0,-2.065C1.14047,-2.065,2.065,-1.14047,2.065,0Z')","path('M2.065,1.65804C2.065,1.8828,1.14047,2.065,0,2.065C-1.14047,2.065,-2.065,1.8828,-2.065,1.65804C-2.065,1.43328,-1.14047,1.25108,0,1.25108C1.14047,1.25108,2.065,1.43328,2.065,1.65804Z')","path('M2.065,0C2.065,1.14047,1.14047,2.065,0,2.065C-1.14047,2.065,-2.065,1.14047,-2.065,0C-2.065,-1.14047,-1.14047,-2.065,0,-2.065C1.14047,-2.065,2.065,-1.14047,2.065,0Z')"],e:[[0],[0],[0],[0],[0],[0]]}],
"#R-Lash-2",[{p:'mpath',t:[2067,2167,2267,2733,2833,2933],v:['0%','25%','50%','50%','75%','100%'],e:[[0],[0],[0],[0],[0],[0]],mp:"M-34.332,-61.4551L-34.332,-55.4551L-34.332,-61.4551L-34.332,-61.4551L-34.332,-55.4551L-34.332,-61.4551"},{p:'d',t:[2067,2167,2267,2733,2833,2933],v:["path('M100.113,68.6537C99.3776,65.5934,95.9559,62.376,91.9699,62.376C87.9823,62.376,84.5605,65.5934,83.825,68.6537')","path('M100.113,62.9949C99.3776,66.0551,95.1165,67.2717,91.9698,67.2717C88.8216,67.2717,84.5605,66.0551,83.8249,62.9949')","path('M100.113,68.6537C99.3776,65.5934,95.9559,62.376,91.9699,62.376C87.9823,62.376,84.5605,65.5934,83.825,68.6537')","path('M100.113,68.6537C99.3776,65.5934,95.9559,62.376,91.9699,62.376C87.9823,62.376,84.5605,65.5934,83.825,68.6537')","path('M100.113,62.9949C99.3776,66.0551,95.1165,67.2717,91.9698,67.2717C88.8216,67.2717,84.5605,66.0551,83.8249,62.9949')","path('M100.113,68.6537C99.3776,65.5934,95.9559,62.376,91.9699,62.376C87.9823,62.376,84.5605,65.5934,83.825,68.6537')"],e:[[0],[0],[0],[0],[0],[0]]}],
"#R-Pupil-2",[{p:'d',t:[2067,2167,2267,2733,2833,2933],v:["path('M2.065,0C2.065,1.14047,1.14047,2.065,0,2.065C-1.14047,2.065,-2.065,1.14047,-2.065,0C-2.065,-1.14047,-1.14047,-2.065,0,-2.065C1.14047,-2.065,2.065,-1.14047,2.065,0Z')","path('M2.065,1.65804C2.065,1.8828,1.14047,2.065,0,2.065C-1.14047,2.065,-2.065,1.8828,-2.065,1.65804C-2.065,1.43328,-1.14047,1.25108,0,1.25108C1.14047,1.25108,2.065,1.43328,2.065,1.65804Z')","path('M2.065,0C2.065,1.14047,1.14047,2.065,0,2.065C-1.14047,2.065,-2.065,1.14047,-2.065,0C-2.065,-1.14047,-1.14047,-2.065,0,-2.065C1.14047,-2.065,2.065,-1.14047,2.065,0Z')","path('M2.065,0C2.065,1.14047,1.14047,2.065,0,2.065C-1.14047,2.065,-2.065,1.14047,-2.065,0C-2.065,-1.14047,-1.14047,-2.065,0,-2.065C1.14047,-2.065,2.065,-1.14047,2.065,0Z')","path('M2.065,1.65804C2.065,1.8828,1.14047,2.065,0,2.065C-1.14047,2.065,-2.065,1.8828,-2.065,1.65804C-2.065,1.43328,-1.14047,1.25108,0,1.25108C1.14047,1.25108,2.065,1.43328,2.065,1.65804Z')","path('M2.065,0C2.065,1.14047,1.14047,2.065,0,2.065C-1.14047,2.065,-2.065,1.14047,-2.065,0C-2.065,-1.14047,-1.14047,-2.065,0,-2.065C1.14047,-2.065,2.065,-1.14047,2.065,0Z')"],e:[[0],[0],[0],[0],[0],[0]]}],
"#All-mouth",[{p:'mpath',t:[333,867,4333,5067],v:['0%','49.999985%','49.999985%','100%'],e:[[1,0,0,0.58,1],[0],[0],[0]],mp:"M67.0701,89.1552L67.2852,50.8793L67.2852,50.8793L67.0701,89.1552"}],
"#Mouth-Fill",[{p:'d',t:[333,867,4333,5067],v:["path('M545.789,496.942C552.769,496.942,555.711,495.055,556.549,495.012C557.387,494.969,557.623,495.187,557.881,495.692C558.139,496.197,557.817,496.898,557.086,497.227C556.355,497.556,551.695,499.332,545.789,499.332C539.346,499.332,535.67,497.591,534.556,497.293C534.033,497.079,533.745,496.541,533.805,495.977C533.865,495.413,533.976,495.276,534.556,494.947C535.136,494.618,539.077,496.942,545.789,496.942Z')","path('M545.698,495.904C547.691,495.904,549.352,496.396,550.592,496.951C551.099,497.201,551.41,497.732,551.384,498.303C551.357,498.874,550.998,499.372,550.47,499.572C549.314,499.882,547.742,500.129,545.698,500.129C543.673,500.129,542.145,499.888,541.031,499.59C540.508,499.376,540.162,498.866,540.15,498.294C540.138,497.722,540.464,497.199,540.977,496.963C542.143,496.379,543.739,495.904,545.698,495.904Z')","path('M545.698,495.904C547.691,495.904,549.352,496.396,550.592,496.951C551.099,497.201,551.41,497.732,551.384,498.303C551.357,498.874,550.998,499.372,550.47,499.572C549.314,499.882,547.742,500.129,545.698,500.129C543.673,500.129,542.145,499.888,541.031,499.59C540.508,499.376,540.162,498.866,540.15,498.294C540.138,497.722,540.464,497.199,540.977,496.963C542.143,496.379,543.739,495.904,545.698,495.904Z')","path('M545.789,496.942C552.769,496.942,555.711,495.055,556.549,495.012C557.387,494.969,557.623,495.187,557.881,495.692C558.139,496.197,557.817,496.898,557.086,497.227C556.355,497.556,551.695,499.332,545.789,499.332C539.346,499.332,535.67,497.591,534.556,497.293C534.033,497.079,533.745,496.541,533.805,495.977C533.865,495.413,533.976,495.276,534.556,494.947C535.136,494.618,539.077,496.942,545.789,496.942Z')"],e:[[1,0,0,0.58,1],[0],[0],[0]]}],
"#Tongue-2",[{p:'opacity',t:[333,867,4333,5067],v:[0,1,1,0],e:[[1,0,0,0.58,1],[0],[0],[0]]}],
"#Mouth-Fill-3",[{p:'d',t:[333,867,4333,5067],v:["path('M545.789,496.942C552.769,496.942,555.711,495.055,556.549,495.012C557.387,494.969,557.623,495.187,557.881,495.692C558.139,496.197,557.817,496.898,557.086,497.227C556.355,497.556,551.695,499.332,545.789,499.332C539.346,499.332,535.67,497.591,534.556,497.293C534.033,497.079,533.745,496.541,533.805,495.977C533.865,495.413,533.976,495.276,534.556,494.947C535.136,494.618,539.077,496.942,545.789,496.942Z')","path('M545.698,495.904C547.691,495.904,549.352,496.396,550.592,496.951C551.099,497.201,551.41,497.732,551.384,498.303C551.357,498.874,550.998,499.372,550.47,499.572C549.314,499.882,547.742,500.129,545.698,500.129C543.673,500.129,542.145,499.888,541.031,499.59C540.508,499.376,540.162,498.866,540.15,498.294C540.138,497.722,540.464,497.199,540.977,496.963C542.143,496.379,543.739,495.904,545.698,495.904Z')","path('M545.698,495.904C547.691,495.904,549.352,496.396,550.592,496.951C551.099,497.201,551.41,497.732,551.384,498.303C551.357,498.874,550.998,499.372,550.47,499.572C549.314,499.882,547.742,500.129,545.698,500.129C543.673,500.129,542.145,499.888,541.031,499.59C540.508,499.376,540.162,498.866,540.15,498.294C540.138,497.722,540.464,497.199,540.977,496.963C542.143,496.379,543.739,495.904,545.698,495.904Z')","path('M545.789,496.942C552.769,496.942,555.711,495.055,556.549,495.012C557.387,494.969,557.623,495.187,557.881,495.692C558.139,496.197,557.817,496.898,557.086,497.227C556.355,497.556,551.695,499.332,545.789,499.332C539.346,499.332,535.67,497.591,534.556,497.293C534.033,497.079,533.745,496.541,533.805,495.977C533.865,495.413,533.976,495.276,534.556,494.947C535.136,494.618,539.077,496.942,545.789,496.942Z')"],e:[[1,0,0,0.58,1],[0],[0],[0]]}],
{autoremove:false}).range(0,5067).loop(true);
if(document.location.search.substr(1).split('&').indexOf('global=paused')>=0)ks.globalPause()})(KeyshapeJS);
]]></script>
</svg>
